<?xml version="1.0" encoding="UTF-8"?>
<!DOCTYPE svg PUBLIC "-//W3C//DTD SVG 1.1//EN" "http://www.w3.org/Graphics/SVG/1.1/DTD/svg11.dtd">
<svg xmlns="http://www.w3.org/2000/svg" version="1.1" width="280px" height="280px" style="shape-rendering:geometricPrecision; text-rendering:geometricPrecision; image-rendering:optimizeQuality; fill-rule:evenodd; clip-rule:evenodd" xmlns:xlink="http://www.w3.org/1999/xlink">
<g><path style="opacity:0.045" fill="#f8e5e5" d="M 196.5,17.5 C 195.277,20.3523 193.277,21.0189 190.5,19.5C 191.263,18.7321 192.263,18.2321 193.5,18C 192.5,17.8333 191.5,17.6667 190.5,17.5C 188.97,17.6399 187.97,18.3065 187.5,19.5C 187.167,20.8333 186.833,20.8333 186.5,19.5C 184.698,18.5418 182.698,17.8751 180.5,17.5C 177.515,18.7242 174.849,18.3909 172.5,16.5C 171.808,17.0253 171.308,17.6919 171,18.5C 170.692,17.6919 170.192,17.0253 169.5,16.5C 163.81,17.2484 158.143,17.5817 152.5,17.5C 127.882,16.0376 103.215,15.5376 78.5,16C 77.3774,17.0437 76.0441,17.7104 74.5,18C 75.1667,18.6667 75.8333,19.3333 76.5,20C 73.8949,21.0213 71.2283,21.8546 68.5,22.5C 65.3859,20.8865 62.0526,19.8865 58.5,19.5C 57.354,20.1449 56.354,20.9783 55.5,22C 49.0094,22.5255 42.6761,23.6922 36.5,25.5C 39.793,23.3242 43.4597,21.8242 47.5,21C 49.5675,20.3131 51.5675,20.4798 53.5,21.5C 55.1667,20.1667 56.8333,18.8333 58.5,17.5C 62.5842,20.6936 64.5842,19.6936 64.5,14.5C 67.1569,14.162 69.4902,14.8287 71.5,16.5C 74.4134,15.7299 77.2467,14.7299 80,13.5C 92.6516,13.5361 105.318,14.2027 118,15.5C 129.107,15.7639 140.274,15.4306 151.5,14.5C 154.465,15.2725 157.465,15.9392 160.5,16.5C 167.228,15.5698 174.061,15.2365 181,15.5C 182.333,16.1667 183.667,16.8333 185,17.5C 189.172,16.4142 193.006,16.4142 196.5,17.5 Z"/></g>
<g><path style="opacity:0.996" fill="#c5463f" d="M 65.5,15.5 C 67.1033,15.3118 68.4366,15.8118 69.5,17C 67.5372,17.8442 66.2039,17.3442 65.5,15.5 Z"/></g>
<g><path style="opacity:0.996" fill="#b5110a" d="M 180.5,17.5 C 180.082,18.2216 179.416,18.7216 178.5,19C 181.146,19.4974 183.813,19.6641 186.5,19.5C 186.833,20.8333 187.167,20.8333 187.5,19.5C 188.5,18.1667 189.5,18.1667 190.5,19.5C 193.277,21.0189 195.277,20.3523 196.5,17.5C 199.237,17.3697 201.237,18.5364 202.5,21C 201.944,22.0111 201.278,22.8444 200.5,23.5C 200.167,24.8333 199.833,24.8333 199.5,23.5C 198.626,22.4749 197.459,21.8082 196,21.5C 189.456,22.7387 182.623,23.5721 175.5,24C 176.167,24.3333 176.833,24.6667 177.5,25C 176.167,25.3333 174.833,25.6667 173.5,26C 175.503,26.3345 177.17,27.1679 178.5,28.5C 178.5,29.1667 178.5,29.8333 178.5,30.5C 173.569,28.9973 173.236,29.8306 177.5,33C 176.833,33.6667 176.167,34.3333 175.5,35C 172.518,35.498 169.518,35.6646 166.5,35.5C 165.602,34.8423 164.602,34.1757 163.5,33.5C 164.922,32.4528 166.422,32.4528 168,33.5C 169.811,32.9221 171.645,32.4221 173.5,32C 169.848,31.5014 166.182,31.3347 162.5,31.5C 162.843,33.4832 162.176,34.8166 160.5,35.5C 158.302,34.8347 155.969,34.1681 153.5,33.5C 154.025,32.8076 154.692,32.3076 155.5,32C 153.305,30.627 150.971,30.2937 148.5,31C 153.421,33.3808 152.755,34.8808 146.5,35.5C 147.076,33.3495 146.409,31.3495 144.5,29.5C 141.972,30.4978 141.972,31.3311 144.5,32C 142.536,32.624 140.869,32.124 139.5,30.5C 139.167,30.6667 138.833,30.8333 138.5,31C 139.357,31.6891 140.023,32.5224 140.5,33.5C 138.604,34.4656 136.604,34.7989 134.5,34.5C 133.624,34.3691 132.957,34.7025 132.5,35.5C 133.59,36.6086 133.59,37.6086 132.5,38.5C 128.816,35.0687 124.483,33.9021 119.5,35C 121.087,35.8624 122.754,36.5291 124.5,37C 122.288,37.7891 120.288,37.6225 118.5,36.5C 116.085,33.5936 113.085,32.927 109.5,34.5C 109.624,35.1067 109.957,35.44 110.5,35.5C 109.687,36.6527 108.687,36.6527 107.5,35.5C 107.167,36.1667 106.833,36.8333 106.5,37.5C 105.817,37.1373 105.15,36.8039 104.5,36.5C 102.484,33.1782 101.817,33.0115 102.5,36C 99.3138,35.8859 96.3138,36.0526 93.5,36.5C 92.5,36.5 91.5,36.5 90.5,36.5C 90.631,35.7611 90.4643,35.0944 90,34.5C 87.9164,36.8632 86.083,36.8632 84.5,34.5C 83.8826,34.3893 83.3826,34.056 83,33.5C 82.2411,35.0629 81.0744,36.0629 79.5,36.5C 79.2089,35.3509 78.3756,34.6842 77,34.5C 75.9302,34.528 75.0968,34.8614 74.5,35.5C 73.8333,35.5 73.1667,35.5 72.5,35.5C 70.9504,34.2801 69.2837,34.2801 67.5,35.5C 55.0747,32.973 44.0747,35.6396 34.5,43.5C 32.8221,46.6803 31.1554,49.847 29.5,53C 30.7862,55.8316 30.7862,58.6649 29.5,61.5C 28.3509,61.7911 27.6842,62.6244 27.5,64C 28.4337,65.9392 28.4337,67.7725 27.5,69.5C 27.2969,71.0443 26.6302,72.3777 25.5,73.5C 26.9056,75.026 28.0723,76.6927 29,78.5C 28.8047,76.8739 28.8047,75.2072 29,73.5C 30.8423,75.5463 32.009,77.8797 32.5,80.5C 31.6768,86.7355 31.6768,92.7355 32.5,98.5C 29.9689,98.2407 27.6356,96.9074 25.5,94.5C 25.1667,94.8333 24.8333,95.1667 24.5,95.5C 24.8152,103.783 25.3152,112.449 26,121.5C 27.4003,116.227 28.0669,110.894 28,105.5C 27.6667,106.167 27.3333,106.833 27,107.5C 26.3333,104.833 26.3333,102.167 27,99.5C 27.6259,101.991 28.4593,101.991 29.5,99.5C 30.562,101.022 31.2287,102.688 31.5,104.5C 31.5,104.833 31.5,105.167 31.5,105.5C 30.5489,106.919 30.2155,108.585 30.5,110.5C 31.5,110.5 32.5,110.5 33.5,110.5C 33.6716,111.492 33.3382,112.158 32.5,112.5C 31.4017,113.601 31.235,114.934 32,116.5C 32.2355,118.119 33.0689,119.119 34.5,119.5C 34.1667,120.167 33.8333,120.833 33.5,121.5C 29.1672,121.825 28.5005,123.492 31.5,126.5C 30.1547,129.703 29.1547,133.036 28.5,136.5C 26.7773,138.78 26.1107,141.447 26.5,144.5C 28.9726,144.088 30.3059,145.088 30.5,147.5C 29.6236,147.369 28.9569,147.702 28.5,148.5C 29.7053,149.995 29.7053,151.328 28.5,152.5C 28.3433,153.873 28.51,155.207 29,156.5C 29.2321,155.263 29.7321,154.263 30.5,153.5C 30.2148,155.288 30.5481,156.955 31.5,158.5C 32.1067,158.376 32.44,158.043 32.5,157.5C 33.2679,156.737 33.7679,155.737 34,154.5C 34.3135,161.017 34.8135,167.517 35.5,174C 35.604,176.145 34.9373,177.979 33.5,179.5C 34.84,180.688 35.5066,182.188 35.5,184C 34.4381,187.031 33.4381,190.031 32.5,193C 32.6667,194.167 32.8333,195.333 33,196.5C 34.772,195.01 34.9387,193.343 33.5,191.5C 33.8076,190.692 34.3076,190.025 35,189.5C 35.7383,193.261 35.4049,196.928 34,200.5C 33.6667,200.167 33.3333,199.833 33,199.5C 32.8166,207.412 32.3166,215.246 31.5,223C 32.448,223.483 33.448,223.649 34.5,223.5C 35.1109,226.721 36.2776,229.721 38,232.5C 37.5358,223.858 37.5358,215.192 38,206.5C 38.2163,204.616 38.883,202.949 40,201.5C 40.0897,206.696 39.5897,211.863 38.5,217C 39.4055,222.814 40.2388,228.647 41,234.5C 42.5767,237.199 44.7433,237.866 47.5,236.5C 46.696,235.059 46.0294,233.559 45.5,232C 45.9054,231.055 46.572,230.388 47.5,230C 44.508,229.481 43.508,227.981 44.5,225.5C 44.1543,224.304 43.6543,224.304 43,225.5C 41.3255,218.562 41.1588,211.562 42.5,204.5C 43.6341,202.034 43.8007,199.367 43,196.5C 42.2828,197.044 41.7828,197.711 41.5,198.5C 40.4127,199.817 40.2461,198.817 41,195.5C 47.1997,175.317 51.3664,154.65 53.5,133.5C 58.47,137.813 62.8033,142.813 66.5,148.5C 69.913,149.638 73.2464,150.971 76.5,152.5C 77.1667,152.167 77.8333,151.833 78.5,151.5C 81.8978,152.104 85.2312,152.937 88.5,154C 90.9826,156.264 90.9826,158.597 88.5,161C 89.0683,164.251 89.9016,167.417 91,170.5C 92.3402,169.132 93.6736,167.799 95,166.5C 95.772,166.645 96.4387,166.978 97,167.5C 97.7171,163.955 97.5504,160.455 96.5,157C 97.0779,155.189 97.5779,153.355 98,151.5C 98.7504,150.874 99.5838,150.374 100.5,150C 98.8934,148.951 98.2267,147.451 98.5,145.5C 99.5,145.5 100.5,145.5 101.5,145.5C 101.383,143.516 102.05,141.85 103.5,140.5C 106.533,138.302 109.7,136.302 113,134.5C 113.617,133.551 113.451,132.718 112.5,132C 114.607,130.736 115.607,128.903 115.5,126.5C 114.167,126.5 112.833,126.5 111.5,126.5C 111.5,128.167 111.5,129.833 111.5,131.5C 109.085,131.627 106.751,131.793 104.5,132C 108.399,128.991 107.733,127.158 102.5,126.5C 102.762,127.978 102.429,129.311 101.5,130.5C 98.557,129.756 95.557,129.256 92.5,129C 89.3909,124.242 87.3909,124.742 86.5,130.5C 85.448,130.649 84.448,130.483 83.5,130C 81.2005,128.275 79.0338,126.442 77,124.5C 75.7789,128.127 74.1122,128.127 72,124.5C 72.4994,117.833 73.3327,111.166 74.5,104.5C 72.5852,101.849 71.0852,102.183 70,105.5C 69.8316,113.521 69.3316,121.521 68.5,129.5C 65.8994,128.425 63.5661,127.091 61.5,125.5C 59.8762,125.64 58.7096,124.973 58,123.5C 57.6667,119.833 57.3333,116.167 57,112.5C 54.1791,124.194 53.1791,124.194 54,112.5C 56.4022,105.355 61.2355,100.522 68.5,98C 74.7478,95.7672 81.0812,95.2672 87.5,96.5C 88.5,96.1667 89.1667,95.5 89.5,94.5C 88.2843,90.6787 86.7843,87.0121 85,83.5C 84.6667,85.1667 84.3333,86.8333 84,88.5C 83.1153,76.746 83.7819,65.0793 86,53.5C 89.04,43.6759 94.8734,41.8426 103.5,48C 112.635,55.8906 121.301,64.2239 129.5,73C 134.261,76.7975 139.761,78.6309 146,78.5C 158.318,78.0213 170.485,77.688 182.5,77.5C 185.14,77.046 187.473,75.8793 189.5,74C 198.569,64.951 208.569,56.951 219.5,50C 222.935,48.404 226.102,48.5707 229,50.5C 229.5,58.4931 229.666,66.4931 229.5,74.5C 228.199,78.9426 227.532,83.6093 227.5,88.5C 225.837,90.4385 225.171,92.7718 225.5,95.5C 225.768,97.099 225.434,98.4324 224.5,99.5C 223.051,105.843 221.718,112.343 220.5,119C 224.208,128.023 227.208,137.19 229.5,146.5C 231.481,161.652 228.647,175.652 221,188.5C 218.429,190.353 215.762,192.019 213,193.5C 209.16,192.733 205.493,193.4 202,195.5C 200.532,194.372 198.865,193.706 197,193.5C 193.208,194.31 189.375,194.644 185.5,194.5C 185.5,193.5 185.5,192.5 185.5,191.5C 188.263,190.545 187.263,190.378 182.5,191C 181.683,193.372 180.35,193.872 178.5,192.5C 176.473,190.912 174.139,190.412 171.5,191C 175.554,192.941 175.22,193.775 170.5,193.5C 165.128,192.616 159.794,192.282 154.5,192.5C 145.725,196.346 137.059,196.346 128.5,192.5C 126.855,192.941 125.189,193.274 123.5,193.5C 116.881,192.022 110.214,190.855 103.5,190C 100.62,189.152 98.12,187.652 96,185.5C 94.9224,180.599 93.2557,175.932 91,171.5C 92.2331,176.856 93.0665,182.356 93.5,188C 92.9865,193.876 92.4865,199.709 92,205.5C 93.6887,200.225 95.1887,194.892 96.5,189.5C 101.696,193.261 107.029,196.761 112.5,200C 114.833,200.333 117.167,200.667 119.5,201C 120.252,201.671 120.586,202.504 120.5,203.5C 120.201,205.604 120.534,207.604 121.5,209.5C 122.452,207.955 122.785,206.288 122.5,204.5C 128.822,204.824 134.822,206.158 140.5,208.5C 141.862,206.223 143.695,205.89 146,207.5C 155.185,218.131 166.519,221.131 180,216.5C 180.414,216.957 180.914,217.291 181.5,217.5C 182.673,214.721 184.507,214.054 187,215.5C 187.163,213.324 187.996,211.491 189.5,210C 188.5,209.333 187.5,209.333 186.5,210C 183.714,212.726 180.381,214.393 176.5,215C 165.586,217.581 156.252,214.914 148.5,207C 155.143,207.224 161.81,207.724 168.5,208.5C 174.493,207.924 180.493,207.424 186.5,207C 192.335,206.034 198.169,204.867 204,203.5C 206.384,205.49 207.217,207.824 206.5,210.5C 202.955,211.31 199.455,212.31 196,213.5C 195.055,213.095 194.388,212.428 194,211.5C 191.631,214.167 189.131,216.667 186.5,219C 182.455,221.604 177.955,223.104 173,223.5C 168.195,223.773 163.361,223.273 158.5,222C 153.915,220.038 149.582,217.538 145.5,214.5C 137.646,214.802 129.98,213.468 122.5,210.5C 121.386,211.723 121.219,213.056 122,214.5C 128.114,215.714 134.28,216.881 140.5,218C 146.021,219.841 151.354,222.175 156.5,225C 164.373,227.986 172.373,228.32 180.5,226C 185.751,223.089 190.751,219.756 195.5,216C 199.221,215.356 202.887,214.523 206.5,213.5C 211.299,222.426 216.132,231.426 221,240.5C 221.833,241.5 222.667,242.5 223.5,243.5C 224.5,242.167 225.5,242.167 226.5,243.5C 227.521,242.998 227.688,242.332 227,241.5C 218.126,229.763 211.626,216.763 207.5,202.5C 210.881,200.962 214.214,199.128 217.5,197C 219.969,194.559 221.802,191.726 223,188.5C 232.274,203.079 237.607,219.079 239,236.5C 239.977,237.774 240.811,237.774 241.5,236.5C 245.876,235.888 246.543,237.054 243.5,240C 246.385,239.352 248.385,237.519 249.5,234.5C 250.024,232.694 250.691,231.028 251.5,229.5C 253.718,227.349 255.052,224.682 255.5,221.5C 256.109,211.789 256.109,201.955 255.5,192C 256.357,191.311 257.023,190.478 257.5,189.5C 256.248,187.999 255.248,186.332 254.5,184.5C 255.137,179.805 255.97,175.138 257,170.5C 257.996,161.932 257.829,158.932 256.5,161.5C 254.631,159.365 253.964,156.698 254.5,153.5C 254.171,147.219 254.005,140.886 254,134.5C 253.5,133.5 253,132.5 252.5,131.5C 254.005,130.158 254.672,128.492 254.5,126.5C 255.833,126.5 257.167,126.5 258.5,126.5C 257.629,123.938 257.629,121.272 258.5,118.5C 258.833,117.167 259.167,115.833 259.5,114.5C 260.167,118.167 260.833,121.833 261.5,125.5C 261.5,127.167 261.5,128.833 261.5,130.5C 262.355,133.688 262.688,136.688 262.5,139.5C 262.5,139.833 262.5,140.167 262.5,140.5C 261.795,146.369 261.129,152.369 260.5,158.5C 261.274,159.711 262.107,159.711 263,158.5C 263.1,155.097 263.934,151.93 265.5,149C 264.733,147.53 264.067,146.03 263.5,144.5C 265.322,144.169 266.989,143.502 268.5,142.5C 268.237,156.444 268.237,170.111 268.5,183.5C 267.05,191.438 267.383,199.438 269.5,207.5C 268.178,210.906 267.178,214.239 266.5,217.5C 271.833,218.833 271.833,220.167 266.5,221.5C 266.262,224.191 266.262,226.857 266.5,229.5C 264.619,231.561 262.953,233.894 261.5,236.5C 261.863,237.183 262.196,237.85 262.5,238.5C 257.066,244.056 251.399,249.389 245.5,254.5C 242.748,255.512 240.081,256.512 237.5,257.5C 236.833,257.5 236.167,257.5 235.5,257.5C 233.511,258.481 231.511,259.481 229.5,260.5C 228.261,260.058 227.261,259.391 226.5,258.5C 223.383,258.872 220.383,258.872 217.5,258.5C 216.887,259.98 216.554,261.313 216.5,262.5C 215.808,261.975 215.308,261.308 215,260.5C 213.951,261.517 212.784,261.684 211.5,261C 212.696,260.346 212.696,259.846 211.5,259.5C 207.192,260.232 202.859,260.898 198.5,261.5C 188.528,260.382 178.528,260.216 168.5,261C 167.5,261.5 166.5,262 165.5,262.5C 159.564,260.807 153.564,260.474 147.5,261.5C 145.912,260.99 144.745,259.99 144,258.5C 143.228,259.849 142.061,260.682 140.5,261C 133.508,261.5 126.508,261.666 119.5,261.5C 119.047,260.542 118.381,259.708 117.5,259C 120.937,258.351 121.104,257.851 118,257.5C 117.167,257.667 116.333,257.833 115.5,258C 116.684,259.145 116.684,260.312 115.5,261.5C 114.833,261.5 114.167,261.5 113.5,261.5C 113.649,260.448 113.483,259.448 113,258.5C 111.887,259.711 110.72,259.711 109.5,258.5C 108.438,259.425 108.438,260.425 109.5,261.5C 108.167,261.5 106.833,261.5 105.5,261.5C 102.001,261.741 101.668,260.908 104.5,259C 102.875,258.147 102.542,257.147 103.5,256C 102.667,255.833 101.833,255.667 101,255.5C 97.9055,255.962 94.7389,256.129 91.5,256C 92.731,257.183 92.731,258.349 91.5,259.5C 89.2978,258.566 87.2978,258.9 85.5,260.5C 73.4933,261.48 61.3266,261.814 49,261.5C 32.446,257.432 20.6126,247.765 13.5,232.5C 13.2079,231.126 12.8746,229.793 12.5,228.5C 12.6695,226.088 12.0028,223.921 10.5,222C 11.1905,220.079 11.5238,218.245 11.5,216.5C 9.07764,214.952 9.07764,213.286 11.5,211.5C 8.97672,209.745 8.97672,207.911 11.5,206C 11.4301,205.235 11.0967,204.735 10.5,204.5C 11.4237,201.447 11.4237,198.447 10.5,195.5C 11.7294,192.865 11.7294,190.199 10.5,187.5C 9.74917,188.376 9.24917,189.376 9,190.5C 8.02263,187.741 8.85596,185.741 11.5,184.5C 9.35661,180.475 9.02328,176.308 10.5,172C 10.3333,171.167 10.1667,170.333 10,169.5C 9.34569,170.696 8.84569,170.696 8.5,169.5C 9.27578,167.644 10.6091,166.311 12.5,165.5C 10.57,162.292 10.57,159.292 12.5,156.5C 11.6732,152.608 12.0065,148.775 13.5,145C 12.3313,142.993 11.6646,140.827 11.5,138.5C 13.6631,139.281 13.9964,138.447 12.5,136C 14.4951,135.076 14.8284,133.91 13.5,132.5C 13.1166,130.592 12.1166,129.092 10.5,128C 12.4425,126.028 12.7758,123.861 11.5,121.5C 11.8333,121.167 12.1667,120.833 12.5,120.5C 13.1757,121.602 13.8423,122.602 14.5,123.5C 15.3091,121.708 15.8091,119.708 16,117.5C 16.9195,117.07 17.7528,116.736 18.5,116.5C 18.3764,115.893 18.0431,115.56 17.5,115.5C 17.5,115.167 17.5,114.833 17.5,114.5C 17.3179,112.265 17.9846,110.265 19.5,108.5C 18.6906,106.929 18.3573,105.262 18.5,103.5C 17.6669,101.248 17.6669,99.0811 18.5,97C 17.9341,96.0053 17.2674,95.172 16.5,94.5C 17.0715,93.0267 17.0715,91.36 16.5,89.5C 17.2313,86.9705 17.5646,83.9705 17.5,80.5C 17.8128,76.9581 17.4794,73.6248 16.5,70.5C 17.2932,64.2469 17.7932,57.9135 18,51.5C 19.0194,49.7306 19.186,48.0639 18.5,46.5C 19.2739,45.2888 20.1072,45.2888 21,46.5C 21.7665,41.5819 23.7665,37.2486 27,33.5C 29.977,30.464 33.1437,27.7973 36.5,25.5C 42.6761,23.6922 49.0094,22.5255 55.5,22C 56.354,20.9783 57.354,20.1449 58.5,19.5C 62.0526,19.8865 65.3859,20.8865 68.5,22.5C 71.2283,21.8546 73.8949,21.0213 76.5,20C 75.8333,19.3333 75.1667,18.6667 74.5,18C 76.0441,17.7104 77.3774,17.0437 78.5,16C 103.215,15.5376 127.882,16.0376 152.5,17.5C 158.143,17.5817 163.81,17.2484 169.5,16.5C 170.192,17.0253 170.692,17.6919 171,18.5C 171.308,17.6919 171.808,17.0253 172.5,16.5C 174.849,18.3909 177.515,18.7242 180.5,17.5 Z M 59.5,132.5 C 60.3864,131.224 61.3864,131.224 62.5,132.5C 61.7666,133.087 60.7666,133.087 59.5,132.5 Z"/></g>
<g><path style="opacity:0.988" fill="#da8382" d="M 180.5,17.5 C 182.698,17.8751 184.698,18.5418 186.5,19.5C 183.813,19.6641 181.146,19.4974 178.5,19C 179.416,18.7216 180.082,18.2216 180.5,17.5 Z"/></g>
<g><path style="opacity:0.996" fill="#d36c69" d="M 190.5,19.5 C 189.5,18.1667 188.5,18.1667 187.5,19.5C 187.97,18.3065 188.97,17.6399 190.5,17.5C 191.5,17.6667 192.5,17.8333 193.5,18C 192.263,18.2321 191.263,18.7321 190.5,19.5 Z"/></g>
<g><path style="opacity:0.898" fill="#f3d1d0" d="M 196.5,17.5 C 201.217,15.706 203.717,17.3727 204,22.5C 202.989,23.3366 201.822,23.67 200.5,23.5C 201.278,22.8444 201.944,22.0111 202.5,21C 201.237,18.5364 199.237,17.3697 196.5,17.5 Z"/></g>
<g><path style="opacity:0.046" fill="#f6dbda" d="M 257.5,29.5 C 254.651,27.3554 251.651,25.3554 248.5,23.5C 246.199,24.2688 246.033,25.2688 248,26.5C 248.333,26.1667 248.667,25.8333 249,25.5C 251.667,29.5 255,32.8333 259,35.5C 259.492,36.549 259.326,37.549 258.5,38.5C 262.584,42.9482 264.584,48.2815 264.5,54.5C 263.883,54.6107 263.383,54.944 263,55.5C 262.79,53.9419 262.29,52.6085 261.5,51.5C 259.792,47.2378 257.959,42.9044 256,38.5C 254.815,36.4407 253.648,36.274 252.5,38C 253.497,39.5955 254.663,41.0955 256,42.5C 256.667,43.8333 256.667,45.1667 256,46.5C 253.239,40.8083 249.406,35.975 244.5,32C 246.503,32.4192 248.503,33.2526 250.5,34.5C 250.833,34.3333 251.167,34.1667 251.5,34C 250.5,33 249.5,32 248.5,31C 244.063,28.8854 239.897,26.3854 236,23.5C 235.517,24.448 235.351,25.448 235.5,26.5C 240.187,26.5084 242.187,28.5084 241.5,32.5C 240.713,30.8958 239.38,30.2291 237.5,30.5C 237.157,28.7748 236.157,28.2748 234.5,29C 235.056,29.3826 235.389,29.8826 235.5,30.5C 232.345,30.0104 229.345,29.3438 226.5,28.5C 224.193,27.6802 221.859,28.0135 219.5,29.5C 214.257,27.787 214.257,26.287 219.5,25C 216.635,24.8171 213.969,24.3171 211.5,23.5C 208.993,24.9987 207.826,24.332 208,21.5C 211.646,19.5117 215.146,19.5117 218.5,21.5C 221.465,20.5883 224.465,20.5883 227.5,21.5C 227.917,20.8761 228.584,20.5427 229.5,20.5C 233.345,22.128 237.345,23.128 241.5,23.5C 241.34,21.8008 241.506,20.1341 242,18.5C 243.049,17.4829 244.216,17.3162 245.5,18C 248.376,21.7811 252.043,24.6144 256.5,26.5C 257.127,27.4168 257.461,28.4168 257.5,29.5 Z M 253.5,33.5 C 255.363,33.8459 256.196,34.8459 256,36.5C 254.583,35.9221 253.75,34.9221 253.5,33.5 Z M 251.5,31.5 C 249.862,30.343 248.196,29.1764 246.5,28C 249.368,27.3599 251.035,28.5266 251.5,31.5 Z M 242.5,24.5 C 245.548,24.494 246.048,25.494 244,27.5C 242.961,26.7562 242.461,25.7562 242.5,24.5 Z"/></g>
<g><path style="opacity:0.976" fill="#d4706b" d="M 227.5,21.5 C 230.179,21.6726 232.513,22.6726 234.5,24.5C 229.855,25.0051 225.188,24.5051 220.5,23C 221,22.5 221.5,22 222,21.5C 223.943,22.807 225.777,22.807 227.5,21.5 Z"/></g>
<g><path style="opacity:0.984" fill="#c43e3b" d="M 211.5,23.5 C 212.777,21.086 214.443,20.9193 216.5,23C 214.866,23.4935 213.199,23.6602 211.5,23.5 Z"/></g>
<g><path style="opacity:0.996" fill="#c13530" d="M 243.5,19.5 C 245.121,19.7869 246.121,20.7869 246.5,22.5C 245.675,23.3857 244.675,23.719 243.5,23.5C 243.5,22.1667 243.5,20.8333 243.5,19.5 Z"/></g>
<g><path style="opacity:0.965" fill="#e6a7a7" d="M 165.5,23.5 C 168.187,23.3359 170.854,23.5026 173.5,24C 171.423,24.1922 169.423,24.6922 167.5,25.5C 168.376,26.2508 169.376,26.7508 170.5,27C 167.461,27.8128 165.794,26.6461 165.5,23.5 Z"/></g>
<g><path style="opacity:0.101" fill="#fdfafa" d="M 187.5,24.5 C 185.735,25.4614 183.735,25.7947 181.5,25.5C 181.5,26.5 181.5,27.5 181.5,28.5C 180.5,28.5 179.5,28.5 178.5,28.5C 179.171,27.1529 179.171,25.9862 178.5,25C 181.482,24.502 184.482,24.3354 187.5,24.5 Z"/></g>
<g><path style="opacity:0.992" fill="#eab7b6" d="M 199.5,23.5 C 195.5,23.8333 191.5,24.1667 187.5,24.5C 184.482,24.3354 181.482,24.502 178.5,25C 179.171,25.9862 179.171,27.1529 178.5,28.5C 177.17,27.1679 175.503,26.3345 173.5,26C 174.833,25.6667 176.167,25.3333 177.5,25C 176.833,24.6667 176.167,24.3333 175.5,24C 182.623,23.5721 189.456,22.7387 196,21.5C 197.459,21.8082 198.626,22.4749 199.5,23.5 Z"/></g>
<g><path style="opacity:0.992" fill="#cc5855" d="M 226.5,28.5 C 226.423,27.2502 225.756,26.4169 224.5,26C 227.212,25.2619 229.545,25.9286 231.5,28C 229.866,28.4935 228.199,28.6602 226.5,28.5 Z"/></g>
<g><path style="opacity:0.996" fill="#b51811" d="M 237.5,30.5 C 236.833,30.5 236.167,30.5 235.5,30.5C 235.389,29.8826 235.056,29.3826 234.5,29C 236.157,28.2748 237.157,28.7748 237.5,30.5 Z"/></g>
<g><path style="opacity:0.992" fill="#e08e8a" d="M 178.5,28.5 C 179.5,28.5 180.5,28.5 181.5,28.5C 181.5,29.5 181.5,30.5 181.5,31.5C 180.209,31.7373 179.209,31.404 178.5,30.5C 178.5,29.8333 178.5,29.1667 178.5,28.5 Z"/></g>
<g><path style="opacity:0.518" fill="#eec0bf" d="M 235.5,30.5 C 236.167,30.5 236.833,30.5 237.5,30.5C 238.167,31.1667 238.833,31.8333 239.5,32.5C 237.62,32.7709 236.287,32.1042 235.5,30.5 Z"/></g>
<g><path style="opacity:0.996" fill="#c64543" d="M 237.5,30.5 C 239.38,30.2291 240.713,30.8958 241.5,32.5C 240.833,32.5 240.167,32.5 239.5,32.5C 238.833,31.8333 238.167,31.1667 237.5,30.5 Z"/></g>
<g><path style="opacity:0.984" fill="#efc2c1" d="M 166.5,35.5 C 164.309,36.2907 162.309,36.2907 160.5,35.5C 162.176,34.8166 162.843,33.4832 162.5,31.5C 166.182,31.3347 169.848,31.5014 173.5,32C 171.645,32.4221 169.811,32.9221 168,33.5C 166.422,32.4528 164.922,32.4528 163.5,33.5C 164.602,34.1757 165.602,34.8423 166.5,35.5 Z"/></g>
<g><path style="opacity:0.98" fill="#cc5651" d="M 118.5,36.5 C 116.83,36.7512 115.33,37.4178 114,38.5C 113.691,37.2341 113.191,36.0674 112.5,35C 111.563,34.3083 110.897,34.475 110.5,35.5C 109.957,35.44 109.624,35.1067 109.5,34.5C 113.085,32.927 116.085,33.5936 118.5,36.5 Z"/></g>
<g><path style="opacity:0.114" fill="#f4d6d6" d="M 160.5,35.5 C 155.786,34.8655 151.119,35.5322 146.5,37.5C 145.048,36.6981 143.382,36.1981 141.5,36C 143.134,35.5065 144.801,35.3398 146.5,35.5C 152.755,34.8808 153.421,33.3808 148.5,31C 150.971,30.2937 153.305,30.627 155.5,32C 154.692,32.3076 154.025,32.8076 153.5,33.5C 155.969,34.1681 158.302,34.8347 160.5,35.5 Z"/></g>
<g><path style="opacity:0.976" fill="#d67675" d="M 104.5,36.5 C 103.833,36.5 103.5,36.8333 103.5,37.5C 100.119,37.5405 96.7861,37.2071 93.5,36.5C 96.3138,36.0526 99.3138,35.8859 102.5,36C 101.817,33.0115 102.484,33.1782 104.5,36.5 Z"/></g>
<g><path style="opacity:0.482" fill="#f6dddd" d="M 181.5,28.5 C 182.475,31.3112 183.142,34.3112 183.5,37.5C 181.323,37.4139 179.323,36.7472 177.5,35.5C 173.713,38.0948 170.046,38.0948 166.5,35.5C 169.518,35.6646 172.518,35.498 175.5,35C 176.167,34.3333 176.833,33.6667 177.5,33C 173.236,29.8306 173.569,28.9973 178.5,30.5C 179.209,31.404 180.209,31.7373 181.5,31.5C 181.5,30.5 181.5,29.5 181.5,28.5 Z"/></g>
<g><path style="opacity:0.094" fill="#f5dada" d="M 239.5,32.5 C 240.167,32.5 240.833,32.5 241.5,32.5C 242.916,34.1793 244.25,35.8459 245.5,37.5C 242.891,36.5569 240.891,34.8903 239.5,32.5 Z"/></g>
<g><path style="opacity:0.943" fill="#d98281" d="M 84.5,34.5 C 86.083,36.8632 87.9164,36.8632 90,34.5C 90.4643,35.0944 90.631,35.7611 90.5,36.5C 88.3066,37.7969 85.9732,37.7969 83.5,36.5C 83.8627,35.8165 84.1961,35.1499 84.5,34.5 Z"/></g>
<g><path style="opacity:0.98" fill="#d57371" d="M 146.5,35.5 C 144.801,35.3398 143.134,35.5065 141.5,36C 143.382,36.1981 145.048,36.6981 146.5,37.5C 142.991,37.5424 139.658,36.8758 136.5,35.5C 136.719,36.675 136.386,37.675 135.5,38.5C 135.595,37.3088 135.262,35.9755 134.5,34.5C 136.604,34.7989 138.604,34.4656 140.5,33.5C 140.023,32.5224 139.357,31.6891 138.5,31C 138.833,30.8333 139.167,30.6667 139.5,30.5C 140.869,32.124 142.536,32.624 144.5,32C 141.972,31.3311 141.972,30.4978 144.5,29.5C 146.409,31.3495 147.076,33.3495 146.5,35.5 Z"/></g>
<g><path style="opacity:0.034" fill="#f7e2e2" d="M 202.5,32.5 C 204.946,33.3921 205.612,34.8921 204.5,37C 201.167,37.6667 197.833,37.6667 194.5,37C 193.167,36 193.167,35 194.5,34C 197.27,34.479 199.936,33.979 202.5,32.5 Z"/></g>
<g><path style="opacity:0.988" fill="#c74843" d="M 199.5,34.5 C 204.539,34.4511 204.705,35.1177 200,36.5C 199.536,35.9056 199.369,35.2389 199.5,34.5 Z"/></g>
<g><path style="opacity:0.29" fill="#f4d7d6" d="M 257.5,29.5 C 259.426,30.2423 261.259,31.2423 263,32.5C 263.595,33.8989 263.428,35.2322 262.5,36.5C 265.199,38.8981 266.533,41.8981 266.5,45.5C 265.382,42.1171 263.382,39.2837 260.5,37C 263.371,34.1627 262.705,32.496 258.5,32C 257.748,31.3292 257.414,30.4959 257.5,29.5 Z"/></g>
<g><path style="opacity:0.03" fill="#f7e3e3" d="M 118.5,36.5 C 120.288,37.6225 122.288,37.7891 124.5,37C 122.754,36.5291 121.087,35.8624 119.5,35C 124.483,33.9021 128.816,35.0687 132.5,38.5C 133.59,37.6086 133.59,36.6086 132.5,35.5C 132.957,34.7025 133.624,34.3691 134.5,34.5C 135.262,35.9755 135.595,37.3088 135.5,38.5C 136.386,37.675 136.719,36.675 136.5,35.5C 139.658,36.8758 142.991,37.5424 146.5,37.5C 143.77,38.8166 140.937,38.8166 138,37.5C 136.566,39.1355 134.733,40.1355 132.5,40.5C 130.807,38.9733 128.973,37.6399 127,36.5C 124.492,38.1742 121.658,39.1742 118.5,39.5C 113.75,38.0076 108.75,37.3409 103.5,37.5C 103.5,36.8333 103.833,36.5 104.5,36.5C 105.15,36.8039 105.817,37.1373 106.5,37.5C 106.833,36.8333 107.167,36.1667 107.5,35.5C 108.687,36.6527 109.687,36.6527 110.5,35.5C 110.897,34.475 111.563,34.3083 112.5,35C 113.191,36.0674 113.691,37.2341 114,38.5C 115.33,37.4178 116.83,36.7512 118.5,36.5 Z"/></g>
<g><path style="opacity:0.18" fill="#f2cece" d="M 245.5,37.5 C 246.906,37.9731 247.573,38.9731 247.5,40.5C 246.094,40.0269 245.427,39.0269 245.5,37.5 Z"/></g>
<g><path style="opacity:0.996" fill="#b92017" d="M 261.5,51.5 C 261.988,54.7107 261.321,57.544 259.5,60C 259.728,60.3988 260.062,60.5654 260.5,60.5C 261.234,61.7079 261.567,63.0413 261.5,64.5C 261.216,66.4147 261.549,68.0813 262.5,69.5C 261.662,72.9191 261.329,76.2525 261.5,79.5C 262.193,80.5178 262.859,81.5178 263.5,82.5C 265.262,79.002 265.596,75.3354 264.5,71.5C 264.5,69.1667 264.5,66.8333 264.5,64.5C 265.258,61.6481 265.258,58.9815 264.5,56.5C 264.5,55.8333 264.5,55.1667 264.5,54.5C 264.584,48.2815 262.584,42.9482 258.5,38.5C 259.326,37.549 259.492,36.549 259,35.5C 255,32.8333 251.667,29.5 249,25.5C 248.667,25.8333 248.333,26.1667 248,26.5C 246.033,25.2688 246.199,24.2688 248.5,23.5C 251.651,25.3554 254.651,27.3554 257.5,29.5C 257.414,30.4959 257.748,31.3292 258.5,32C 262.705,32.496 263.371,34.1627 260.5,37C 263.382,39.2837 265.382,42.1171 266.5,45.5C 266.215,48.8291 266.882,51.8291 268.5,54.5C 267.781,66.3093 268.114,77.976 269.5,89.5C 268.871,102.514 268.205,115.514 267.5,128.5C 268.025,129.192 268.692,129.692 269.5,130C 268.484,130.519 267.818,131.353 267.5,132.5C 268.327,135.783 268.66,139.116 268.5,142.5C 266.989,143.502 265.322,144.169 263.5,144.5C 263.167,143.167 262.833,141.833 262.5,140.5C 262.5,140.167 262.5,139.833 262.5,139.5C 263.695,139.134 264.361,138.301 264.5,137C 263.67,135.535 263.504,134.035 264,132.5C 264.654,133.696 265.154,133.696 265.5,132.5C 264.873,131.583 264.539,130.583 264.5,129.5C 264.539,128.417 264.873,127.417 265.5,126.5C 264.602,123.696 263.602,120.863 262.5,118C 264.316,116.281 265.316,114.115 265.5,111.5C 265.457,110.584 265.124,109.917 264.5,109.5C 264.5,107.5 264.5,105.5 264.5,103.5C 264.665,100.15 264.498,96.8168 264,93.5C 263.333,94.8333 262.667,94.8333 262,93.5C 261.501,97.1516 261.335,100.818 261.5,104.5C 261.5,105.5 261.5,106.5 261.5,107.5C 262.239,113.427 262.239,119.427 261.5,125.5C 260.833,121.833 260.167,118.167 259.5,114.5C 259.357,112.738 259.691,111.071 260.5,109.5C 259.645,108.707 258.811,109.04 258,110.5C 257.219,113.834 256.886,117.167 257,120.5C 257.278,119.584 257.778,118.918 258.5,118.5C 257.629,121.272 257.629,123.938 258.5,126.5C 257.167,126.5 255.833,126.5 254.5,126.5C 255.528,125.213 255.195,124.046 253.5,123C 254.833,120.667 254.833,118.333 253.5,116C 253.95,114.715 254.617,113.548 255.5,112.5C 254.833,111.5 254.167,110.5 253.5,109.5C 254.262,105.889 254.762,102.222 255,98.5C 255.692,97.9747 256.192,97.3081 256.5,96.5C 255.933,94.0177 255.266,91.6843 254.5,89.5C 255.854,86.216 255.52,83.216 253.5,80.5C 255.003,76.6444 255.67,72.6444 255.5,68.5C 255.702,66.0504 255.369,63.717 254.5,61.5C 253.381,59.5161 253.714,57.6828 255.5,56C 254.308,53.9452 254.308,51.9452 255.5,50C 254.906,49.5357 254.239,49.369 253.5,49.5C 252.209,48.5272 252.209,47.5272 253.5,46.5C 253.145,45.4777 252.478,44.811 251.5,44.5C 251.475,41.821 250.142,40.4877 247.5,40.5C 247.573,38.9731 246.906,37.9731 245.5,37.5C 244.25,35.8459 242.916,34.1793 241.5,32.5C 242.187,28.5084 240.187,26.5084 235.5,26.5C 235.351,25.448 235.517,24.448 236,23.5C 239.897,26.3854 244.063,28.8854 248.5,31C 249.5,32 250.5,33 251.5,34C 251.167,34.1667 250.833,34.3333 250.5,34.5C 248.503,33.2526 246.503,32.4192 244.5,32C 249.406,35.975 253.239,40.8083 256,46.5C 256.667,45.1667 256.667,43.8333 256,42.5C 254.663,41.0955 253.497,39.5955 252.5,38C 253.648,36.274 254.815,36.4407 256,38.5C 257.959,42.9044 259.792,47.2378 261.5,51.5 Z M 253.5,33.5 C 253.75,34.9221 254.583,35.9221 256,36.5C 256.196,34.8459 255.363,33.8459 253.5,33.5 Z M 251.5,31.5 C 251.035,28.5266 249.368,27.3599 246.5,28C 248.196,29.1764 249.862,30.343 251.5,31.5 Z M 242.5,24.5 C 242.461,25.7562 242.961,26.7562 244,27.5C 246.048,25.494 245.548,24.494 242.5,24.5 Z"/></g>
<g><path style="opacity:0.029" fill="#f9eaea" d="M 247.5,40.5 C 250.142,40.4877 251.475,41.821 251.5,44.5C 250.167,43.1667 248.833,41.8333 247.5,40.5 Z"/></g>
<g><path style="opacity:0.996" fill="#e69b91" d="M 251.5,44.5 C 252.478,44.811 253.145,45.4777 253.5,46.5C 252.209,47.5272 252.209,48.5272 253.5,49.5C 250.366,48.8924 249.699,47.2258 251.5,44.5 Z"/></g>
<g><path style="opacity:0.916" fill="#f8e7e6" d="M 91.5,46.5 C 96.2931,47.2294 100.626,49.0627 104.5,52C 113.652,59.975 120.652,69.475 125.5,80.5C 125.062,81.5063 124.396,81.5063 123.5,80.5C 122.614,79.675 122.281,78.675 122.5,77.5C 121.448,77.6495 120.448,77.4828 119.5,77C 118.206,74.913 117.039,72.7463 116,70.5C 114.933,69.8095 113.766,69.3095 112.5,69C 116.304,67.5057 115.971,66.6724 111.5,66.5C 111.5,65.1667 111.5,63.8333 111.5,62.5C 107.446,62.1137 105.446,59.7804 105.5,55.5C 102.438,54.3078 99.4378,52.8078 96.5,51C 94.2305,50.2419 92.0639,50.4086 90,51.5C 89.8782,49.7184 90.3782,48.0518 91.5,46.5 Z"/></g>
<g><path style="opacity:0.034" fill="#f9e7e6" d="M 36.5,25.5 C 33.1437,27.7973 29.977,30.464 27,33.5C 23.7665,37.2486 21.7665,41.5819 21,46.5C 20.1072,45.2888 19.2739,45.2888 18.5,46.5C 19.186,48.0639 19.0194,49.7306 18,51.5C 17.7932,57.9135 17.2932,64.2469 16.5,70.5C 16.5386,71.7562 16.0386,72.7562 15,73.5C 13.8873,72.695 12.7206,72.0283 11.5,71.5C 15.7752,69.1587 16.7752,65.6587 14.5,61C 15.0777,54.6973 16.2444,48.5306 18,42.5C 21.8121,36.691 26.3121,31.5243 31.5,27C 33.0249,25.9914 34.6916,25.4914 36.5,25.5 Z"/></g>
<g><path style="opacity:0.013" fill="#f8e6e6" d="M 266.5,45.5 C 267.657,48.2727 268.324,51.2727 268.5,54.5C 266.882,51.8291 266.215,48.8291 266.5,45.5 Z"/></g>
<g><path style="opacity:0.217" fill="#f9e8e7" d="M 223.5,51.5 C 225.167,51.5 226.833,51.5 228.5,51.5C 228.719,52.675 228.386,53.675 227.5,54.5C 217.081,59.1558 209.415,66.6558 204.5,77C 205.343,78.9354 205.343,80.7688 204.5,82.5C 203.742,81.1886 202.742,80.6886 201.5,81C 200.427,82.3129 199.76,83.8129 199.5,85.5C 205.218,94.4923 211.385,103.159 218,111.5C 218.681,113.529 219.014,115.529 219,117.5C 217.022,114.355 214.522,111.688 211.5,109.5C 212.326,108.549 212.492,107.549 212,106.5C 208.765,101.423 204.932,96.7567 200.5,92.5C 199.758,89.6153 198.424,87.1153 196.5,85C 202.022,70.9836 211.022,59.8169 223.5,51.5 Z"/></g>
<g><path style="opacity:0.043" fill="#f7e0e0" d="M 253.5,49.5 C 254.239,49.369 254.906,49.5357 255.5,50C 254.308,51.9452 254.308,53.9452 255.5,56C 253.714,57.6828 253.381,59.5161 254.5,61.5C 253.853,62.2739 253.52,63.2739 253.5,64.5C 253.34,66.3545 254.007,67.6879 255.5,68.5C 255.67,72.6444 255.003,76.6444 253.5,80.5C 255.52,83.216 255.854,86.216 254.5,89.5C 253.657,86.6743 252.991,83.6743 252.5,80.5C 253.167,77.5 253.833,74.5 254.5,71.5C 253.408,68.9556 252.741,66.2889 252.5,63.5C 253.151,58.6866 253.484,54.0199 253.5,49.5 Z"/></g>
<g><path style="opacity:0.306" fill="#d87e7c" d="M 261.5,51.5 C 262.29,52.6085 262.79,53.9419 263,55.5C 263.383,54.944 263.883,54.6107 264.5,54.5C 264.5,55.1667 264.5,55.8333 264.5,56.5C 263.333,58.0414 262,59.3748 260.5,60.5C 260.062,60.5654 259.728,60.3988 259.5,60C 261.321,57.544 261.988,54.7107 261.5,51.5 Z"/></g>
<g><path style="opacity:0.388" fill="#f4d6d5" d="M 229.5,74.5 C 229.666,66.4931 229.5,58.4931 229,50.5C 226.102,48.5707 222.935,48.404 219.5,50C 208.569,56.951 198.569,64.951 189.5,74C 187.473,75.8793 185.14,77.046 182.5,77.5C 191.265,70.1684 199.931,62.6684 208.5,55C 213.085,51.2906 218.252,48.7906 224,47.5C 226.261,47.4391 228.261,48.1057 230,49.5C 230.823,58.0104 230.657,66.3437 229.5,74.5 Z"/></g>
<g><path style="opacity:0.021" fill="#f5d7d6" d="M 264.5,56.5 C 265.258,58.9815 265.258,61.6481 264.5,64.5C 263.5,64.5 262.5,64.5 261.5,64.5C 261.567,63.0413 261.234,61.7079 260.5,60.5C 262,59.3748 263.333,58.0414 264.5,56.5 Z"/></g>
<g><path style="opacity:0.008" fill="#f8e6e6" d="M 268.5,54.5 C 269.495,65.988 269.828,77.6547 269.5,89.5C 268.114,77.976 267.781,66.3093 268.5,54.5 Z"/></g>
<g><path style="opacity:0.092" fill="#faeded" d="M 84.5,34.5 C 84.1961,35.1499 83.8627,35.8165 83.5,36.5C 85.9732,37.7969 88.3066,37.7969 90.5,36.5C 91.5,36.5 92.5,36.5 93.5,36.5C 96.7861,37.2071 100.119,37.5405 103.5,37.5C 85.2226,38.5199 66.5559,38.6866 47.5,38C 45.7536,38.4709 44.087,39.1376 42.5,40C 39.4305,43.4137 36.5972,46.9137 34,50.5C 33.4001,55.55 32.9001,60.3833 32.5,65C 34.0125,73.9653 35.3458,82.9653 36.5,92C 36.0369,94.3894 35.3703,96.7228 34.5,99C 34.9205,106.168 35.9205,113.168 37.5,120C 35.2479,126.919 35.2479,133.586 37.5,140C 33.3594,144.655 33.5261,149.155 38,153.5C 38.1667,155 38.3333,156.5 38.5,158C 37.441,168.818 37.2744,179.652 38,190.5C 38.3333,190.833 38.6667,191.167 39,191.5C 40.2515,189.999 41.2515,188.332 42,186.5C 46.265,171.453 48.9317,156.119 50,140.5C 51.043,138.167 51.8763,135.834 52.5,133.5C 52.8333,133.5 53.1667,133.5 53.5,133.5C 51.3664,154.65 47.1997,175.317 41,195.5C 40.2461,198.817 40.4127,199.817 41.5,198.5C 42.4614,200.265 42.7947,202.265 42.5,204.5C 41.1588,211.562 41.3255,218.562 43,225.5C 43.6543,224.304 44.1543,224.304 44.5,225.5C 43.508,227.981 44.508,229.481 47.5,230C 46.572,230.388 45.9054,231.055 45.5,232C 46.0294,233.559 46.696,235.059 47.5,236.5C 44.7433,237.866 42.5767,237.199 41,234.5C 40.2388,228.647 39.4055,222.814 38.5,217C 39.5897,211.863 40.0897,206.696 40,201.5C 38.883,202.949 38.2163,204.616 38,206.5C 37.5358,215.192 37.5358,223.858 38,232.5C 36.2776,229.721 35.1109,226.721 34.5,223.5C 33.448,223.649 32.448,223.483 31.5,223C 32.3166,215.246 32.8166,207.412 33,199.5C 33.3333,199.833 33.6667,200.167 34,200.5C 35.4049,196.928 35.7383,193.261 35,189.5C 34.3076,190.025 33.8076,190.692 33.5,191.5C 34.9387,193.343 34.772,195.01 33,196.5C 32.8333,195.333 32.6667,194.167 32.5,193C 33.4381,190.031 34.4381,187.031 35.5,184C 35.5066,182.188 34.84,180.688 33.5,179.5C 34.9373,177.979 35.604,176.145 35.5,174C 34.8135,167.517 34.3135,161.017 34,154.5C 33.7679,155.737 33.2679,156.737 32.5,157.5C 32.067,154.834 31.567,152.168 31,149.5C 30.51,150.793 30.3433,152.127 30.5,153.5C 29.7321,154.263 29.2321,155.263 29,156.5C 28.51,155.207 28.3433,153.873 28.5,152.5C 29.7053,151.328 29.7053,149.995 28.5,148.5C 28.9569,147.702 29.6236,147.369 30.5,147.5C 33.7097,146.305 34.3763,144.305 32.5,141.5C 33.7562,141.539 34.7562,141.039 35.5,140C 33.7928,139.805 32.1261,139.805 30.5,140C 31.4061,138.301 31.7394,136.467 31.5,134.5C 33.171,131.392 34.171,127.892 34.5,124C 33.7476,123.329 33.4142,122.496 33.5,121.5C 33.8333,120.833 34.1667,120.167 34.5,119.5C 33.6814,117.228 33.0147,114.894 32.5,112.5C 33.3382,112.158 33.6716,111.492 33.5,110.5C 33.6347,108.446 32.968,106.779 31.5,105.5C 31.5,105.167 31.5,104.833 31.5,104.5C 32.4972,104.53 33.1639,104.03 33.5,103C 32.8524,101.56 32.5191,100.06 32.5,98.5C 31.6768,92.7355 31.6768,86.7355 32.5,80.5C 32.8685,77.4669 32.2018,74.8002 30.5,72.5C 31.5691,69.592 31.7358,66.592 31,63.5C 28.5728,64.567 28.0728,63.9003 29.5,61.5C 30.7862,58.6649 30.7862,55.8316 29.5,53C 31.1554,49.847 32.8221,46.6803 34.5,43.5C 44.0747,35.6396 55.0747,32.973 67.5,35.5C 69.2251,36.905 71.2251,37.405 73.5,37C 72.8333,36.6667 72.1667,36.3333 71.5,36C 71.7284,35.6012 72.0618,35.4346 72.5,35.5C 73.1667,35.5 73.8333,35.5 74.5,35.5C 75.8121,35.8243 76.6454,36.4909 77,37.5C 77.9021,37.2568 78.7354,36.9234 79.5,36.5C 81.0744,36.0629 82.2411,35.0629 83,33.5C 83.3826,34.056 83.8826,34.3893 84.5,34.5 Z"/></g>
<g><path style="opacity:0.906" fill="#e29b99" d="M 74.5,35.5 C 75.0968,34.8614 75.9302,34.528 77,34.5C 78.3756,34.6842 79.2089,35.3509 79.5,36.5C 78.7354,36.9234 77.9021,37.2568 77,37.5C 76.6454,36.4909 75.8121,35.8243 74.5,35.5 Z"/></g>
<g><path style="opacity:0.975" fill="#d67574" d="M 72.5,35.5 C 72.0618,35.4346 71.7284,35.6012 71.5,36C 72.1667,36.3333 72.8333,36.6667 73.5,37C 71.2251,37.405 69.2251,36.905 67.5,35.5C 69.2837,34.2801 70.9504,34.2801 72.5,35.5 Z"/></g>
<g><path style="opacity:0.971" fill="#d36d6b" d="M 254.5,61.5 C 255.369,63.717 255.702,66.0504 255.5,68.5C 254.007,67.6879 253.34,66.3545 253.5,64.5C 253.52,63.2739 253.853,62.2739 254.5,61.5 Z"/></g>
<g><path style="opacity:0.788" fill="#e19998" d="M 261.5,64.5 C 262.5,64.5 263.5,64.5 264.5,64.5C 264.5,66.8333 264.5,69.1667 264.5,71.5C 263.833,70.8333 263.167,70.1667 262.5,69.5C 261.549,68.0813 261.216,66.4147 261.5,64.5 Z"/></g>
<g><path style="opacity:0.996" fill="#d1645f" d="M 29.5,61.5 C 28.0728,63.9003 28.5728,64.567 31,63.5C 31.7358,66.592 31.5691,69.592 30.5,72.5C 29.8999,71.0998 28.8999,70.0998 27.5,69.5C 28.4337,67.7725 28.4337,65.9392 27.5,64C 27.6842,62.6244 28.3509,61.7911 29.5,61.5 Z"/></g>
<g><path style="opacity:0.851" fill="#e9b5b4" d="M 27.5,69.5 C 28.8999,70.0998 29.8999,71.0998 30.5,72.5C 32.2018,74.8002 32.8685,77.4669 32.5,80.5C 32.009,77.8797 30.8423,75.5463 29,73.5C 28.8047,75.2072 28.8047,76.8739 29,78.5C 28.0723,76.6927 26.9056,75.026 25.5,73.5C 26.6302,72.3777 27.2969,71.0443 27.5,69.5 Z"/></g>
<g><path style="opacity:0.013" fill="#f6dbda" d="M 262.5,69.5 C 263.167,70.1667 263.833,70.8333 264.5,71.5C 265.596,75.3354 265.262,79.002 263.5,82.5C 262.859,81.5178 262.193,80.5178 261.5,79.5C 261.329,76.2525 261.662,72.9191 262.5,69.5 Z"/></g>
<g><path style="opacity:0.232" fill="#f7e4e4" d="M 229.5,74.5 C 229.638,79.4141 228.972,84.0808 227.5,88.5C 227.532,83.6093 228.199,78.9426 229.5,74.5 Z"/></g>
<g><path style="opacity:0.224" fill="#e5a7a6" d="M 16.5,70.5 C 17.4794,73.6248 17.8128,76.9581 17.5,80.5C 16.6909,78.7078 16.1909,76.7078 16,74.5C 14.7012,74.9662 13.2012,74.9662 11.5,74.5C 11.5,73.5 11.5,72.5 11.5,71.5C 12.7206,72.0283 13.8873,72.695 15,73.5C 16.0386,72.7562 16.5386,71.7562 16.5,70.5 Z"/></g>
<g><path style="opacity:0.996" fill="#f4d8d8" d="M 93.5,77.5 C 95.6456,77.6964 95.8122,78.6964 94,80.5C 93.5172,79.552 93.3505,78.552 93.5,77.5 Z"/></g>
<g><path style="opacity:0.996" fill="#e6aead" d="M 110.5,77.5 C 112.465,77.9483 112.798,78.9483 111.5,80.5C 110.614,79.675 110.281,78.675 110.5,77.5 Z"/></g>
<g><path style="opacity:0.996" fill="#de8987" d="M 115.5,77.5 C 118.797,77.3287 119.131,77.9954 116.5,79.5C 115.702,79.0431 115.369,78.3764 115.5,77.5 Z"/></g>
<g><path style="opacity:0.604" fill="#e5a7a8" d="M 24.5,77.5 C 25.2176,79.2458 26.2176,79.9125 27.5,79.5C 24.9066,83.3856 23.9066,82.719 24.5,77.5 Z"/></g>
<g><path style="opacity:0.996" fill="#e19897" d="M 105.5,79.5 C 107.337,79.6395 107.67,80.3061 106.5,81.5C 105.702,81.0431 105.369,80.3764 105.5,79.5 Z"/></g>
<g><path style="opacity:0.996" fill="#e8adac" d="M 103.5,83.5 C 105.337,83.6395 105.67,84.3061 104.5,85.5C 103.702,85.0431 103.369,84.3764 103.5,83.5 Z"/></g>
<g><path style="opacity:0.996" fill="#e09b9a" d="M 135.5,83.5 C 137.337,83.6395 137.67,84.3061 136.5,85.5C 135.702,85.0431 135.369,84.3764 135.5,83.5 Z"/></g>
<g><path style="opacity:0.996" fill="#e4a1a1" d="M 146.5,83.5 C 147.239,83.369 147.906,83.5357 148.5,84C 146.91,85.0458 145.41,86.2125 144,87.5C 143.333,86.8333 143.333,86.1667 144,85.5C 144.995,84.9341 145.828,84.2674 146.5,83.5 Z"/></g>
<g><path style="opacity:0.996" fill="#f5dddf" d="M 150.5,84.5 C 153.001,84.5109 153.168,85.1776 151,86.5C 150.536,85.9056 150.369,85.2389 150.5,84.5 Z"/></g>
<g><path style="opacity:0.992" fill="#dc8784" d="M 191.5,84.5 C 193.465,84.9483 193.798,85.9483 192.5,87.5C 191.614,86.675 191.281,85.675 191.5,84.5 Z"/></g>
<g><path style="opacity:0.072" fill="#f9e8e7" d="M 182.5,77.5 C 170.485,77.688 158.318,78.0213 146,78.5C 139.761,78.6309 134.261,76.7975 129.5,73C 121.301,64.2239 112.635,55.8906 103.5,48C 94.8734,41.8426 89.04,43.6759 86,53.5C 83.7819,65.0793 83.1153,76.746 84,88.5C 84.3333,86.8333 84.6667,85.1667 85,83.5C 86.7843,87.0121 88.2843,90.6787 89.5,94.5C 89.1667,95.5 88.5,96.1667 87.5,96.5C 81.0812,95.2672 74.7478,95.7672 68.5,98C 61.2355,100.522 56.4022,105.355 54,112.5C 53.1791,124.194 54.1791,124.194 57,112.5C 57.3333,116.167 57.6667,119.833 58,123.5C 58.7096,124.973 59.8762,125.64 61.5,125.5C 60.791,126.404 59.791,126.737 58.5,126.5C 57.3176,123.991 55.3176,122.657 52.5,122.5C 51.6473,117.859 51.8139,113.192 53,108.5C 60.6987,97.9262 71.1987,93.0929 84.5,94C 83.8742,93.2496 83.3742,92.4162 83,91.5C 82.3333,80.8333 82.3333,70.1667 83,59.5C 83.4021,44.7255 90.2354,40.2255 103.5,46C 113.49,53.6574 122.49,62.3241 130.5,72C 139.315,76.2111 148.482,77.3778 158,75.5C 166.073,76.6982 174.24,77.3648 182.5,77.5 Z"/></g>
<g><path style="opacity:0.996" fill="#ecb8b7" d="M 91.5,70.5 C 93.337,70.6395 93.6704,71.3061 92.5,72.5C 91.7025,72.0431 91.3691,71.3764 91.5,70.5 Z"/></g>
<g><path style="opacity:0.996" fill="#f6dbda" d="M 101.5,68.5 C 103.727,69.4006 104.727,71.0672 104.5,73.5C 103.5,73.5 102.5,73.5 101.5,73.5C 101.5,71.8333 101.5,70.1667 101.5,68.5 Z"/></g>
<g><path style="opacity:0.996" fill="#e39e9b" d="M 106.5,65.5 C 107.675,65.281 108.675,65.6143 109.5,66.5C 107.948,67.7979 106.948,67.4646 106.5,65.5 Z"/></g>
<g><path style="opacity:0.996" fill="#e8a9a8" d="M 98.5,62.5 C 99.3864,61.2241 100.386,61.2241 101.5,62.5C 100.575,63.5624 99.5754,63.5624 98.5,62.5 Z"/></g>
<g><path style="opacity:0.996" fill="#f8e5e5" d="M 94.5,56.5 C 97.962,58.1927 97.962,59.1927 94.5,59.5C 94.5,58.5 94.5,57.5 94.5,56.5 Z"/></g>
<g><path style="opacity:0.988" fill="#eec3c3" d="M 101.5,57.5 C 102.077,56.2267 102.743,56.2267 103.5,57.5C 103.03,58.463 102.363,58.463 101.5,57.5 Z"/></g>
<g><path style="opacity:0.878" fill="#df908e" d="M 263.5,82.5 C 263.817,85.5719 263.484,88.5719 262.5,91.5C 262.167,90 261.833,88.5 261.5,87C 261.569,85.0145 262.235,83.5145 263.5,82.5 Z"/></g>
<g><path style="opacity:0.996" fill="#d97f7e" d="M 140.5,89.5 C 141.713,90.4971 141.546,91.4971 140,92.5C 139.53,91.4232 139.697,90.4232 140.5,89.5 Z"/></g>
<g><path style="opacity:0.008" fill="#f9e8e8" d="M 227.5,88.5 C 227.59,91.1522 226.924,93.4855 225.5,95.5C 225.171,92.7718 225.837,90.4385 227.5,88.5 Z"/></g>
<g><path style="opacity:0.996" fill="#df8f8d" d="M 109.5,89.5 C 110.776,90.3864 110.776,91.3864 109.5,92.5C 108.438,91.5754 108.438,90.5754 109.5,89.5 Z"/></g>
<g><path style="opacity:0.98" fill="#d6736f" d="M 16.5,89.5 C 17.0715,91.36 17.0715,93.0267 16.5,94.5C 15.8826,94.6107 15.3826,94.944 15,95.5C 13.4361,93.7369 12.2694,91.7369 11.5,89.5C 13.0026,88.9478 14.6693,88.9478 16.5,89.5 Z"/></g>
<g><path style="opacity:0.996" fill="#df908f" d="M 134.5,91.5 C 135.713,92.4971 135.546,93.4971 134,94.5C 133.53,93.4232 133.697,92.4232 134.5,91.5 Z"/></g>
<g><path style="opacity:0.996" fill="#d87e7d" d="M 113.5,92.5 C 115.337,92.6395 115.67,93.3061 114.5,94.5C 113.702,94.0431 113.369,93.3764 113.5,92.5 Z"/></g>
<g><path style="opacity:0.996" fill="#f2cdcb" d="M 105.5,92.5 C 106.043,92.56 106.376,92.8933 106.5,93.5C 105.167,95.1667 103.833,96.8333 102.5,98.5C 103.391,99.5896 104.391,99.5896 105.5,98.5C 106.251,99.376 106.751,100.376 107,101.5C 107.893,100.289 108.726,100.289 109.5,101.5C 108.667,101.833 107.833,102.167 107,102.5C 104.681,101.291 102.181,100.458 99.5,100C 98.6433,99.3109 97.9767,98.4776 97.5,97.5C 100.852,97.4675 103.519,95.8009 105.5,92.5 Z"/></g>
<g><path style="opacity:0.686" fill="#d97d7c" d="M 264.5,103.5 C 263.686,101.369 263.186,99.0356 263,96.5C 262.817,99.3647 262.317,102.031 261.5,104.5C 261.335,100.818 261.501,97.1516 262,93.5C 262.667,94.8333 263.333,94.8333 264,93.5C 264.498,96.8168 264.665,100.15 264.5,103.5 Z"/></g>
<g><path style="opacity:0.996" fill="#edc3c1" d="M 130.5,96.5 C 132.337,96.6395 132.67,97.3061 131.5,98.5C 130.702,98.0431 130.369,97.3764 130.5,96.5 Z"/></g>
<g><path style="opacity:0.996" fill="#df9594" d="M 143.5,92.5 C 144.239,92.369 144.906,92.5357 145.5,93C 144.224,96.5003 142.391,99.6669 140,102.5C 141.256,99.3326 142.423,95.9993 143.5,92.5 Z"/></g>
<g><path style="opacity:0.049" fill="#fcf7f7" d="M 264.5,103.5 C 264.5,105.5 264.5,107.5 264.5,109.5C 264.719,110.675 264.386,111.675 263.5,112.5C 262.83,110.709 262.163,109.042 261.5,107.5C 261.5,106.5 261.5,105.5 261.5,104.5C 262.317,102.031 262.817,99.3647 263,96.5C 263.186,99.0356 263.686,101.369 264.5,103.5 Z"/></g>
<g><path style="opacity:0.996" fill="#e5a4a2" d="M 135.5,97.5 C 137.657,98.0533 137.49,99.0533 135,100.5C 134.53,99.4232 134.697,98.4232 135.5,97.5 Z"/></g>
<g><path style="opacity:0.996" fill="#de8a87" d="M 144.5,98.5 C 146.465,98.9483 146.798,99.9483 145.5,101.5C 144.614,100.675 144.281,99.675 144.5,98.5 Z"/></g>
<g><path style="opacity:0.996" fill="#f5d7d6" d="M 191.5,100.5 C 194.012,101.216 194.012,102.216 191.5,103.5C 190.913,102.767 190.913,101.767 191.5,100.5 Z"/></g>
<g><path style="opacity:0.996" fill="#efc6c6" d="M 197.5,100.5 C 198.239,100.369 198.906,100.536 199.5,101C 196.852,105.833 196.185,105.666 197.5,100.5 Z"/></g>
<g><path style="opacity:0.996" fill="#f4d9d9" d="M 182.5,103.5 C 184.337,103.639 184.67,104.306 183.5,105.5C 182.702,105.043 182.369,104.376 182.5,103.5 Z"/></g>
<g><path style="opacity:0.996" fill="#f0c8c7" d="M 82.5,103.5 C 83.675,103.281 84.675,103.614 85.5,104.5C 83.9483,105.798 82.9483,105.465 82.5,103.5 Z"/></g>
<g><path style="opacity:0.996" fill="#f7dede" d="M 96.5,102.5 C 98.4085,102.883 99.9085,103.883 101,105.5C 102.039,111.028 103.206,116.528 104.5,122C 104.167,122.833 103.833,123.667 103.5,124.5C 100.556,117.4 98.2225,110.066 96.5,102.5 Z"/></g>
<g><path style="opacity:0.922" fill="#dc8583" d="M 32.5,98.5 C 32.5191,100.06 32.8524,101.56 33.5,103C 33.1639,104.03 32.4972,104.53 31.5,104.5C 31.2287,102.688 30.562,101.022 29.5,99.5C 28.4593,101.991 27.6259,101.991 27,99.5C 26.3333,102.167 26.3333,104.833 27,107.5C 27.3333,106.833 27.6667,106.167 28,105.5C 28.0669,110.894 27.4003,116.227 26,121.5C 25.3152,112.449 24.8152,103.783 24.5,95.5C 24.8333,95.1667 25.1667,94.8333 25.5,94.5C 27.6356,96.9074 29.9689,98.2407 32.5,98.5 Z"/></g>
<g><path style="opacity:0.996" fill="#edc1c0" d="M 125.5,103.5 C 126.376,103.369 127.043,103.702 127.5,104.5C 125.993,108.355 125.326,108.021 125.5,103.5 Z"/></g>
<g><path style="opacity:0.996" fill="#e09491" d="M 133.5,101.5 C 134.368,103.48 133.701,105.147 131.5,106.5C 131.167,106.167 130.833,105.833 130.5,105.5C 131.524,104.148 132.524,102.815 133.5,101.5 Z"/></g>
<g><path style="opacity:0.996" fill="#e8aaa9" d="M 87.5,105.5 C 90.7973,105.329 91.1306,105.995 88.5,107.5C 87.7025,107.043 87.3691,106.376 87.5,105.5 Z"/></g>
<g><path style="opacity:0.996" fill="#e7acab" d="M 136.5,105.5 C 138.337,105.639 138.67,106.306 137.5,107.5C 136.702,107.043 136.369,106.376 136.5,105.5 Z"/></g>
<g><path style="opacity:0.996" fill="#eab4b3" d="M 202.5,105.5 C 203.376,105.369 204.043,105.702 204.5,106.5C 201.74,110.564 201.074,110.231 202.5,105.5 Z"/></g>
<g><path style="opacity:0.847" fill="#d87a77" d="M 18.5,103.5 C 18.3573,105.262 18.6906,106.929 19.5,108.5C 17.9846,110.265 17.3179,112.265 17.5,114.5C 16.5222,114.189 15.8555,113.522 15.5,112.5C 15.1064,110.576 15.773,108.743 17.5,107C 15.7289,104.887 14.2289,105.053 13,107.5C 12.3333,105.833 12.3333,104.167 13,102.5C 13.3333,103.167 13.6667,103.833 14,104.5C 15.0842,102.218 16.5842,101.884 18.5,103.5 Z"/></g>
<g><path style="opacity:0.976" fill="#d36d6c" d="M 31.5,105.5 C 32.968,106.779 33.6347,108.446 33.5,110.5C 32.5,110.5 31.5,110.5 30.5,110.5C 30.2155,108.585 30.5489,106.919 31.5,105.5 Z"/></g>
<g><path style="opacity:0.996" fill="#f6e2e2" d="M 110.5,107.5 C 112.225,107.843 112.725,108.843 112,110.5C 110.961,109.756 110.461,108.756 110.5,107.5 Z"/></g>
<g><path style="opacity:0.996" fill="#dc8987" d="M 175.5,109.5 C 177.337,109.639 177.67,110.306 176.5,111.5C 175.702,111.043 175.369,110.376 175.5,109.5 Z"/></g>
<g><path style="opacity:0.996" fill="#f8e7e8" d="M 84.5,108.5 C 86.9422,110.139 87.1089,112.139 85,114.5C 83.3115,112.68 83.1448,110.68 84.5,108.5 Z"/></g>
<g><path style="opacity:0.988" fill="#e29a99" d="M 259.5,114.5 C 259.167,115.833 258.833,117.167 258.5,118.5C 257.778,118.918 257.278,119.584 257,120.5C 256.886,117.167 257.219,113.834 258,110.5C 258.811,109.04 259.645,108.707 260.5,109.5C 259.691,111.071 259.357,112.738 259.5,114.5 Z"/></g>
<g><path style="opacity:0.996" fill="#f2cdcc" d="M 193.5,108.5 C 194.844,110.185 194.677,111.852 193,113.5C 192.616,111.803 192.782,110.137 193.5,108.5 Z"/></g>
<g><path style="opacity:0.996" fill="#f1d0d0" d="M 198.5,111.5 C 199.586,111.62 200.253,112.287 200.5,113.5C 200.167,114.167 199.833,114.833 199.5,115.5C 198.571,114.311 198.238,112.978 198.5,111.5 Z"/></g>
<g><path style="opacity:0.996" fill="#f9ecec" d="M 112.5,112.5 C 113.5,112.5 114.5,112.5 115.5,112.5C 115.5,113.833 115.5,115.167 115.5,116.5C 113.023,116.949 111.023,116.283 109.5,114.5C 110.602,113.824 111.602,113.158 112.5,112.5 Z"/></g>
<g><path style="opacity:0.996" fill="#f1cccd" d="M 88.5,113.5 C 90.337,113.639 90.6704,114.306 89.5,115.5C 88.7025,115.043 88.3691,114.376 88.5,113.5 Z"/></g>
<g><path style="opacity:0.996" fill="#f0c9c8" d="M 153.5,111.5 C 155.099,113.604 156.932,115.604 159,117.5C 159.688,118.332 159.521,118.998 158.5,119.5C 157.172,116.584 155.172,115.417 152.5,116C 153.38,114.644 153.714,113.144 153.5,111.5 Z"/></g>
<g><path style="opacity:0.996" fill="#e7a8a7" d="M 159.5,113.5 C 161.446,114.254 162.279,115.588 162,117.5C 160.519,116.529 159.685,115.196 159.5,113.5 Z"/></g>
<g><path style="opacity:0.992" fill="#e29694" d="M 261.5,107.5 C 262.163,109.042 262.83,110.709 263.5,112.5C 264.386,111.675 264.719,110.675 264.5,109.5C 265.124,109.917 265.457,110.584 265.5,111.5C 265.316,114.115 264.316,116.281 262.5,118C 263.602,120.863 264.602,123.696 265.5,126.5C 264.873,127.417 264.539,128.417 264.5,129.5C 263.391,129.557 262.391,129.89 261.5,130.5C 261.5,128.833 261.5,127.167 261.5,125.5C 262.239,119.427 262.239,113.427 261.5,107.5 Z"/></g>
<g><path style="opacity:0.996" fill="#f7dedd" d="M 122.5,116.5 C 124.721,118.33 124.888,120.33 123,122.5C 122.505,120.527 122.338,118.527 122.5,116.5 Z"/></g>
<g><path style="opacity:0.996" fill="#f8e8e8" d="M 126.5,116.5 C 128.344,117.204 128.844,118.537 128,120.5C 126.812,119.437 126.312,118.103 126.5,116.5 Z"/></g>
<g><path style="opacity:0.988" fill="#d57371" d="M 32.5,112.5 C 33.0147,114.894 33.6814,117.228 34.5,119.5C 33.0689,119.119 32.2355,118.119 32,116.5C 31.235,114.934 31.4017,113.601 32.5,112.5 Z"/></g>
<g><path style="opacity:0.996" fill="#eec3c4" d="M 207.5,113.5 C 208.054,115.771 207.554,118.104 206,120.5C 205.761,118.041 206.261,115.707 207.5,113.5 Z"/></g>
<g><path style="opacity:0.984" fill="#dd8e8d" d="M 17.5,115.5 C 18.0431,115.56 18.3764,115.893 18.5,116.5C 17.7528,116.736 16.9195,117.07 16,117.5C 15.8091,119.708 15.3091,121.708 14.5,123.5C 14.41,121.304 14.0767,119.137 13.5,117C 13.8333,116.167 14.1667,115.333 14.5,114.5C 15.4168,115.127 16.4168,115.461 17.5,115.5 Z"/></g>
<g><path style="opacity:0.996" fill="#fbf1f1" d="M 186.5,110.5 C 187.629,112.628 187.796,114.961 187,117.5C 186.08,120.101 185.413,122.768 185,125.5C 183.817,126.731 182.651,126.731 181.5,125.5C 183.961,120.878 185.628,115.878 186.5,110.5 Z"/></g>
<g><path style="opacity:0.996" fill="#f9ebeb" d="M 211.5,118.5 C 212.776,119.386 212.776,120.386 211.5,121.5C 210.913,120.767 210.913,119.767 211.5,118.5 Z"/></g>
<g><path style="opacity:0.996" fill="#f0c3c2" d="M 114.5,118.5 C 115.788,120.035 115.788,121.701 114.5,123.5C 113.948,121.997 113.948,120.331 114.5,118.5 Z"/></g>
<g><path style="opacity:0.012" fill="#faedec" d="M 224.5,99.5 C 224.04,105.35 223.373,111.183 222.5,117C 223.925,123.276 225.758,129.442 228,135.5C 228.936,139.114 229.436,142.78 229.5,146.5C 227.208,137.19 224.208,128.023 220.5,119C 221.718,112.343 223.051,105.843 224.5,99.5 Z"/></g>
<g><path style="opacity:0.996" fill="#ebbbba" d="M 158.5,123.5 C 160.983,123.73 161.483,124.397 160,125.5C 158.97,125.164 158.47,124.497 158.5,123.5 Z"/></g>
<g><path style="opacity:0.137" fill="#f3d2d2" d="M 269.5,89.5 C 269.672,120.716 269.672,152.05 269.5,183.5C 269.167,183.5 268.833,183.5 268.5,183.5C 268.237,170.111 268.237,156.444 268.5,142.5C 268.66,139.116 268.327,135.783 267.5,132.5C 267.818,131.353 268.484,130.519 269.5,130C 268.692,129.692 268.025,129.192 267.5,128.5C 268.205,115.514 268.871,102.514 269.5,89.5 Z"/></g>
<g><path style="opacity:0.925" fill="#df8d8a" d="M 33.5,121.5 C 33.4142,122.496 33.7476,123.329 34.5,124C 34.171,127.892 33.171,131.392 31.5,134.5C 32.6567,131.693 32.6567,129.026 31.5,126.5C 28.5005,123.492 29.1672,121.825 33.5,121.5 Z"/></g>
<g><path style="opacity:0.124" fill="#fdf6f6" d="M 53.5,133.5 C 53.1667,133.5 52.8333,133.5 52.5,133.5C 54.556,132.801 56.556,131.801 58.5,130.5C 59.8069,129.135 59.8069,127.802 58.5,126.5C 59.791,126.737 60.791,126.404 61.5,125.5C 63.5661,127.091 65.8994,128.425 68.5,129.5C 69.3316,121.521 69.8316,113.521 70,105.5C 71.0852,102.183 72.5852,101.849 74.5,104.5C 73.3327,111.166 72.4994,117.833 72,124.5C 74.1122,128.127 75.7789,128.127 77,124.5C 79.0338,126.442 81.2005,128.275 83.5,130C 84.448,130.483 85.448,130.649 86.5,130.5C 87.3909,124.742 89.3909,124.242 92.5,129C 95.557,129.256 98.557,129.756 101.5,130.5C 102.429,129.311 102.762,127.978 102.5,126.5C 107.733,127.158 108.399,128.991 104.5,132C 106.751,131.793 109.085,131.627 111.5,131.5C 111.5,129.833 111.5,128.167 111.5,126.5C 112.833,126.5 114.167,126.5 115.5,126.5C 115.607,128.903 114.607,130.736 112.5,132C 113.451,132.718 113.617,133.551 113,134.5C 109.7,136.302 106.533,138.302 103.5,140.5C 102.05,141.85 101.383,143.516 101.5,145.5C 100.5,145.5 99.5,145.5 98.5,145.5C 98.2267,147.451 98.8934,148.951 100.5,150C 99.5838,150.374 98.7504,150.874 98,151.5C 97.5779,153.355 97.0779,155.189 96.5,157C 97.5504,160.455 97.7171,163.955 97,167.5C 96.4387,166.978 95.772,166.645 95,166.5C 93.6736,167.799 92.3402,169.132 91,170.5C 89.9016,167.417 89.0683,164.251 88.5,161C 90.9826,158.597 90.9826,156.264 88.5,154C 85.2312,152.937 81.8978,152.104 78.5,151.5C 77.8333,151.833 77.1667,152.167 76.5,152.5C 73.2464,150.971 69.913,149.638 66.5,148.5C 62.8033,142.813 58.47,137.813 53.5,133.5 Z M 59.5,132.5 C 60.7666,133.087 61.7666,133.087 62.5,132.5C 61.3864,131.224 60.3864,131.224 59.5,132.5 Z"/></g>
<g><path style="opacity:0.992" fill="#faedec" d="M 126.5,125.5 C 134.847,125.719 143.18,126.219 151.5,127C 159.66,132.056 159.16,133.223 150,130.5C 144.748,133.489 139.915,132.822 135.5,128.5C 132.617,128.872 129.617,128.872 126.5,128.5C 126.5,127.5 126.5,126.5 126.5,125.5 Z"/></g>
<g><path style="opacity:0.996" fill="#f9e7e6" d="M 192.5,127.5 C 198.17,128.644 203.837,128.644 209.5,127.5C 210.833,127.667 212.167,127.833 213.5,128C 213.957,128.414 214.291,128.914 214.5,129.5C 211.893,130.318 209.226,130.818 206.5,131C 205.39,133.253 203.557,134.419 201,134.5C 197.894,134.193 195.06,133.193 192.5,131.5C 190.945,131.722 189.611,132.389 188.5,133.5C 186.775,132.985 185.108,132.318 183.5,131.5C 186.948,131.619 189.948,130.285 192.5,127.5 Z"/></g>
<g><path style="opacity:0.929" fill="#d77c77" d="M 60.5,127.5 C 62.9828,127.73 63.4828,128.397 62,129.5C 60.9701,129.164 60.4701,128.497 60.5,127.5 Z"/></g>
<g><path style="opacity:0.512" fill="#f4d7d7" d="M 31.5,126.5 C 32.6567,129.026 32.6567,131.693 31.5,134.5C 30.7321,135.263 30.2321,136.263 30,137.5C 29.6174,136.944 29.1174,136.611 28.5,136.5C 29.1547,133.036 30.1547,129.703 31.5,126.5 Z"/></g>
<g><path style="opacity:0.996" fill="#d26d68" d="M 162.5,128.5 C 164.105,130.308 164.439,132.308 163.5,134.5C 161.834,132.579 161.5,130.579 162.5,128.5 Z"/></g>
<g><path style="opacity:0.153" fill="#f8e8e9" d="M 250.5,130.5 C 248.777,131.605 247.777,133.272 247.5,135.5C 247.046,133.741 247.046,131.741 247.5,129.5C 248.791,129.263 249.791,129.596 250.5,130.5 Z"/></g>
<g><path style="opacity:0.996" fill="#f6e0e0" d="M 264.5,129.5 C 264.539,130.583 264.873,131.583 265.5,132.5C 265.154,133.696 264.654,133.696 264,132.5C 263.504,134.035 263.67,135.535 264.5,137C 264.361,138.301 263.695,139.134 262.5,139.5C 262.688,136.688 262.355,133.688 261.5,130.5C 262.391,129.89 263.391,129.557 264.5,129.5 Z"/></g>
<g><path style="opacity:0.996" fill="#e9aeae" d="M 130.5,131.5 C 132.337,131.639 132.67,132.306 131.5,133.5C 130.702,133.043 130.369,132.376 130.5,131.5 Z"/></g>
<g><path style="opacity:0.914" fill="#cb5957" d="M 250.5,130.5 C 250.5,132.167 250.5,133.833 250.5,135.5C 249.5,135.5 248.5,135.5 247.5,135.5C 247.777,133.272 248.777,131.605 250.5,130.5 Z"/></g>
<g><path style="opacity:0.996" fill="#ebb8b8" d="M 175.5,131.5 C 176.239,131.369 176.906,131.536 177.5,132C 175.812,134.268 173.979,136.435 172,138.5C 172.066,135.7 173.233,133.367 175.5,131.5 Z"/></g>
<g><path style="opacity:0.996" fill="#f4d6d5" d="M 185.5,135.5 C 188.918,135.56 192.252,136.06 195.5,137C 191.354,138.595 187.02,138.928 182.5,138C 183.571,137.148 184.571,136.315 185.5,135.5 Z"/></g>
<g><path style="opacity:0.953" fill="#dc8989" d="M 13.5,132.5 C 14.8284,133.91 14.4951,135.076 12.5,136C 13.9964,138.447 13.6631,139.281 11.5,138.5C 11.6138,136.282 12.2804,134.282 13.5,132.5 Z"/></g>
<g><path style="opacity:0.996" fill="#e3a09f" d="M 177.5,135.5 C 179.975,135.747 179.975,136.413 177.5,137.5C 176.537,137.03 176.537,136.363 177.5,135.5 Z"/></g>
<g><path style="opacity:0.996" fill="#e6aaa9" d="M 214.5,134.5 C 216.656,134.872 216.656,135.872 214.5,137.5C 213.438,136.575 213.438,135.575 214.5,134.5 Z"/></g>
<g><path style="opacity:0.996" fill="#e08880" d="M 223.5,135.5 C 225.344,136.204 225.844,137.537 225,139.5C 223.812,138.437 223.312,137.103 223.5,135.5 Z"/></g>
<g><path style="opacity:0.992" fill="#de8e8d" d="M 256.5,135.5 C 257.586,135.62 258.253,136.287 258.5,137.5C 258.167,138.167 257.833,138.833 257.5,139.5C 256.571,138.311 256.238,136.978 256.5,135.5 Z"/></g>
<g><path style="opacity:0.996" fill="#ecb6b4" d="M 123.5,136.5 C 125.225,136.843 125.725,137.843 125,139.5C 123.961,138.756 123.461,137.756 123.5,136.5 Z"/></g>
<g><path style="opacity:0.996" fill="#eec2c2" d="M 207.5,136.5 C 209.337,136.639 209.67,137.306 208.5,138.5C 207.702,138.043 207.369,137.376 207.5,136.5 Z"/></g>
<g><path style="opacity:0.988" fill="#c0342f" d="M 31.5,134.5 C 31.7394,136.467 31.4061,138.301 30.5,140C 32.1261,139.805 33.7928,139.805 35.5,140C 34.7562,141.039 33.7562,141.539 32.5,141.5C 31.0331,142.292 29.6998,142.292 28.5,141.5C 29.5353,139.872 29.5353,138.205 28.5,136.5C 29.1174,136.611 29.6174,136.944 30,137.5C 30.2321,136.263 30.7321,135.263 31.5,134.5 Z"/></g>
<g><path style="opacity:0.994" fill="#e4a3a2" d="M 28.5,136.5 C 29.5353,138.205 29.5353,139.872 28.5,141.5C 29.6998,142.292 31.0331,142.292 32.5,141.5C 34.3763,144.305 33.7097,146.305 30.5,147.5C 30.3059,145.088 28.9726,144.088 26.5,144.5C 26.1107,141.447 26.7773,138.78 28.5,136.5 Z"/></g>
<g><path style="opacity:0.996" fill="#fcf3f3" d="M 194.5,141.5 C 196.179,141.892 197.846,142.392 199.5,143C 198.667,143.167 197.833,143.333 197,143.5C 195.624,143.316 194.791,142.649 194.5,141.5 Z"/></g>
<g><path style="opacity:0.957" fill="#f4d8d8" d="M 106.5,140.5 C 109.14,141.794 109.14,143.127 106.5,144.5C 105.374,143.192 105.374,141.858 106.5,140.5 Z"/></g>
<g><path style="opacity:0.984" fill="#f7dfde" d="M 114.5,142.5 C 115.901,142.971 117.234,143.638 118.5,144.5C 116.167,145.941 114.834,145.275 114.5,142.5 Z"/></g>
<g><path style="opacity:0.98" fill="#f3d7d7" d="M 109.5,143.5 C 111.337,143.639 111.67,144.306 110.5,145.5C 109.702,145.043 109.369,144.376 109.5,143.5 Z"/></g>
<g><path style="opacity:0.996" fill="#f8e4e3" d="M 161.5,140.5 C 161.56,139.957 161.893,139.624 162.5,139.5C 163.695,141.297 165.362,142.297 167.5,142.5C 167.5,143.833 167.5,145.167 167.5,146.5C 170.314,146.403 172.314,147.569 173.5,150C 173.387,151.28 172.72,152.113 171.5,152.5C 170.3,151.469 168.966,150.635 167.5,150C 167.3,145.645 165.3,142.479 161.5,140.5 Z"/></g>
<g><path style="opacity:0.996" fill="#f8e7e6" d="M 200.5,146.5 C 200.5,146.833 200.5,147.167 200.5,147.5C 199.033,148.292 197.7,148.292 196.5,147.5C 197.574,145.466 198.907,145.133 200.5,146.5 Z"/></g>
<g><path style="opacity:0.996" fill="#dd8986" d="M 200.5,147.5 C 200.5,147.167 200.5,146.833 200.5,146.5C 202.288,146.215 203.955,146.548 205.5,147.5C 203.833,148.666 202.166,148.666 200.5,147.5 Z"/></g>
<g><path style="opacity:0.996" fill="#f4d6d7" d="M 144.5,146.5 C 146.337,146.639 146.67,147.306 145.5,148.5C 144.702,148.043 144.369,147.376 144.5,146.5 Z"/></g>
<g><path style="opacity:0.996" fill="#f1cccc" d="M 212.5,142.5 C 213.497,142.47 214.164,142.97 214.5,144C 211.57,149.832 210.903,149.332 212.5,142.5 Z"/></g>
<g><path style="opacity:0.878" fill="#e8b0b1" d="M 28.5,152.5 C 27.8826,152.389 27.3826,152.056 27,151.5C 26.3333,149.5 26.3333,147.5 27,145.5C 27.4396,147.866 27.9396,150.199 28.5,152.5 Z"/></g>
<g><path style="opacity:0.996" fill="#f4d6d6" d="M 180.5,152.5 C 178.318,151.7 176.651,150.2 175.5,148C 178.778,147.647 180.445,149.147 180.5,152.5 Z"/></g>
<g><path style="opacity:0.996" fill="#f5dede" d="M 115.5,152.5 C 116.601,151.402 117.934,151.235 119.5,152C 118.318,153.768 116.985,153.935 115.5,152.5 Z"/></g>
<g><path style="opacity:0.996" fill="#e8afaf" d="M 131.5,149.5 C 133.196,149.685 134.529,150.519 135.5,152C 133.055,152.91 131.722,152.076 131.5,149.5 Z"/></g>
<g><path style="opacity:0.996" fill="#e8afad" d="M 108.5,151.5 C 109.675,151.281 110.675,151.614 111.5,152.5C 109.948,153.798 108.948,153.465 108.5,151.5 Z"/></g>
<g><path style="opacity:0.996" fill="#f8e6e6" d="M 180.5,152.5 C 181.947,151.378 182.947,149.878 183.5,148C 185.217,146.441 187.217,145.608 189.5,145.5C 189.304,148.796 187.638,151.129 184.5,152.5C 183.479,157.03 180.812,159.53 176.5,160C 175.099,158.323 173.765,156.656 172.5,155C 172.667,153.5 173.5,152.667 175,152.5C 176.765,153.232 177.932,154.565 178.5,156.5C 180.111,155.68 180.778,154.346 180.5,152.5 Z"/></g>
<g><path style="opacity:0.81" fill="#f2d1d0" d="M 262.5,140.5 C 262.833,141.833 263.167,143.167 263.5,144.5C 264.067,146.03 264.733,147.53 265.5,149C 263.934,151.93 263.1,155.097 263,158.5C 262.107,159.711 261.274,159.711 260.5,158.5C 261.129,152.369 261.795,146.369 262.5,140.5 Z"/></g>
<g><path style="opacity:0.973" fill="#da807e" d="M 32.5,157.5 C 32.44,158.043 32.1067,158.376 31.5,158.5C 30.5481,156.955 30.2148,155.288 30.5,153.5C 30.3433,152.127 30.51,150.793 31,149.5C 31.567,152.168 32.067,154.834 32.5,157.5 Z"/></g>
<g><path style="opacity:0.996" fill="#dc807b" d="M 137.5,151.5 C 140.368,151.855 142.701,153.188 144.5,155.5C 144,155.833 143.5,156.167 143,156.5C 141.101,154.746 139.268,153.079 137.5,151.5 Z"/></g>
<g><path style="opacity:0.996" fill="#f2cdcb" d="M 202.5,151.5 C 204.377,150.375 206.21,150.709 208,152.5C 208.981,155.12 210.147,157.62 211.5,160C 211.07,161.434 210.236,162.601 209,163.5C 207.672,160.214 206.339,156.881 205,153.5C 204.292,152.619 203.458,151.953 202.5,151.5 Z"/></g>
<g><path style="opacity:0.996" fill="#e4a3a1" d="M 55.5,159.5 C 57.9732,159.947 58.1399,160.947 56,162.5C 55.5172,161.552 55.3505,160.552 55.5,159.5 Z"/></g>
<g><path style="opacity:0.992" fill="#e6a8a7" d="M 101.5,159.5 C 105.31,160.754 105.31,161.754 101.5,162.5C 101.5,161.5 101.5,160.5 101.5,159.5 Z"/></g>
<g><path style="opacity:0.741" fill="#d16866" d="M 254.5,153.5 C 253.964,156.698 254.631,159.365 256.5,161.5C 255.791,162.404 254.791,162.737 253.5,162.5C 253.19,159.287 253.523,156.287 254.5,153.5 Z"/></g>
<g><path style="opacity:0.988" fill="#bc3229" d="M 91.5,161.5 C 93.7602,162.238 93.9269,163.238 92,164.5C 91.5172,163.552 91.3505,162.552 91.5,161.5 Z"/></g>
<g><path style="opacity:0.996" fill="#de9190" d="M 110.5,162.5 C 115.814,162.239 116.314,162.906 112,164.5C 110.97,164.164 110.47,163.497 110.5,162.5 Z"/></g>
<g><path style="opacity:0.996" fill="#f8e6e7" d="M 181.5,162.5 C 185.942,162.884 186.276,163.884 182.5,165.5C 181.614,164.675 181.281,163.675 181.5,162.5 Z"/></g>
<g><path style="opacity:0.04" fill="#f8e4e4" d="M 254.5,89.5 C 255.266,91.6843 255.933,94.0177 256.5,96.5C 256.192,97.3081 255.692,97.9747 255,98.5C 254.762,102.222 254.262,105.889 253.5,109.5C 254.167,110.5 254.833,111.5 255.5,112.5C 254.617,113.548 253.95,114.715 253.5,116C 254.833,118.333 254.833,120.667 253.5,123C 255.195,124.046 255.528,125.213 254.5,126.5C 254.672,128.492 254.005,130.158 252.5,131.5C 253,132.5 253.5,133.5 254,134.5C 254.005,140.886 254.171,147.219 254.5,153.5C 253.523,156.287 253.19,159.287 253.5,162.5C 254.791,162.737 255.791,162.404 256.5,161.5C 257.829,158.932 257.996,161.932 257,170.5C 255.97,175.138 255.137,179.805 254.5,184.5C 255.248,186.332 256.248,187.999 257.5,189.5C 257.023,190.478 256.357,191.311 255.5,192C 256.109,201.955 256.109,211.789 255.5,221.5C 253.856,221.286 252.356,221.62 251,222.5C 250.982,224.797 251.149,227.131 251.5,229.5C 250.691,231.028 250.024,232.694 249.5,234.5C 249.167,233.167 248.833,231.833 248.5,230.5C 248.5,230.167 248.5,229.833 248.5,229.5C 249.059,225.948 250.059,222.448 251.5,219C 250.932,217.128 250.265,215.295 249.5,213.5C 251.396,212.1 252.729,210.267 253.5,208C 253.368,197.909 252.702,187.909 251.5,178C 252.169,172.892 253.502,168.059 255.5,163.5C 254.5,163.5 253.5,163.5 252.5,163.5C 252.5,161.833 252.5,160.167 252.5,158.5C 251.167,158.5 249.833,158.5 248.5,158.5C 248.337,156.143 248.503,153.81 249,151.5C 251.185,150.132 252.351,148.132 252.5,145.5C 251.838,143.484 251.838,141.317 252.5,139C 252.333,137.833 252.167,136.667 252,135.5C 250.384,136.801 248.884,136.801 247.5,135.5C 248.5,135.5 249.5,135.5 250.5,135.5C 250.5,133.833 250.5,132.167 250.5,130.5C 252.104,129.713 252.771,128.38 252.5,126.5C 251.5,126.5 250.5,126.5 249.5,126.5C 249.201,124.396 249.534,122.396 250.5,120.5C 251.086,120.709 251.586,121.043 252,121.5C 252.256,118.443 252.756,115.443 253.5,112.5C 253.377,107.808 253.377,103.142 253.5,98.5C 253.333,97.8333 253.167,97.1667 253,96.5C 250.605,97.7982 249.438,96.9649 249.5,94C 250.593,90.9165 251.76,91.0832 253,94.5C 253.608,92.8455 254.108,91.1789 254.5,89.5 Z"/></g>
<g><path style="opacity:0.996" fill="#f4dadb" d="M 124.5,162.5 C 125.776,163.386 125.776,164.386 124.5,165.5C 123.438,164.575 123.438,163.575 124.5,162.5 Z"/></g>
<g><path style="opacity:0.996" fill="#f2d2d2" d="M 144.5,164.5 C 145.978,164.238 147.311,164.571 148.5,165.5C 147.833,165.833 147.167,166.167 146.5,166.5C 145.287,166.253 144.62,165.586 144.5,164.5 Z"/></g>
<g><path style="opacity:0.996" fill="#f8e3e2" d="M 152.5,163.5 C 154.337,163.639 154.67,164.306 153.5,165.5C 152.702,165.043 152.369,164.376 152.5,163.5 Z"/></g>
<g><path style="opacity:0.996" fill="#f7e4e4" d="M 135.5,163.5 C 139.009,164.153 138.676,165.153 134.5,166.5C 133.692,166.192 133.025,165.692 132.5,165C 133.737,164.768 134.737,164.268 135.5,163.5 Z"/></g>
<g><path style="opacity:0.996" fill="#e1928f" d="M 168.5,165.5 C 169.386,164.224 170.386,164.224 171.5,165.5C 170.575,166.562 169.575,166.562 168.5,165.5 Z"/></g>
<g><path style="opacity:0.996" fill="#e19b9a" d="M 187.5,164.5 C 189.337,164.639 189.67,165.306 188.5,166.5C 187.702,166.043 187.369,165.376 187.5,164.5 Z"/></g>
<g><path style="opacity:0.996" fill="#de9191" d="M 218.5,166.5 C 220.337,166.639 220.67,167.306 219.5,168.5C 218.702,168.043 218.369,167.376 218.5,166.5 Z"/></g>
<g><path style="opacity:0.976" fill="#f0c7c6" d="M 263.5,163.5 C 264.097,163.735 264.43,164.235 264.5,165C 264.146,167.264 263.146,169.098 261.5,170.5C 260.386,169.277 260.219,167.944 261,166.5C 262.417,165.922 263.25,164.922 263.5,163.5 Z"/></g>
<g><path style="opacity:0.996" fill="#d46a65" d="M 53.5,168.5 C 54.6491,168.791 55.3158,169.624 55.5,171C 55.3333,171.833 55.1667,172.667 55,173.5C 53.9914,171.975 53.4914,170.308 53.5,168.5 Z"/></g>
<g><path style="opacity:0.999" fill="#faebea" d="M 207.5,164.5 C 209.635,164.147 210.968,164.98 211.5,167C 210.863,169.245 210.03,171.412 209,173.5C 205.338,177.074 201.171,179.74 196.5,181.5C 189.229,180.612 182.729,177.945 177,173.5C 161.435,183.145 146.268,182.812 131.5,172.5C 131.833,171.833 132.167,171.167 132.5,170.5C 130.577,169.692 128.577,169.192 126.5,169C 127.93,167.56 129.597,167.226 131.5,168C 134.638,169.644 137.638,171.477 140.5,173.5C 145.926,171.355 151.593,170.522 157.5,171C 158.711,171.893 158.711,172.726 157.5,173.5C 154.755,172.147 152.088,172.314 149.5,174C 152.561,175.116 155.728,175.949 159,176.5C 160.017,173.972 161.184,173.972 162.5,176.5C 165.997,173.667 169.997,172 174.5,171.5C 175.5,170.167 176.5,168.833 177.5,167.5C 182.161,173.916 188.328,176.916 196,176.5C 199.94,174.732 203.773,172.732 207.5,170.5C 208.59,169.391 208.59,168.391 207.5,167.5C 206.808,168.025 206.308,168.692 206,169.5C 205.36,167.457 205.86,165.79 207.5,164.5 Z"/></g>
<g><path style="opacity:0.996" fill="#efc9c9" d="M 193.5,168.5 C 195.337,168.639 195.67,169.306 194.5,170.5C 193.702,170.043 193.369,169.376 193.5,168.5 Z"/></g>
<g><path style="opacity:0.996" fill="#f7dfde" d="M 162.5,168.5 C 164.308,168.491 165.975,168.991 167.5,170C 165.613,170.78 163.946,170.613 162.5,169.5C 162.5,169.167 162.5,168.833 162.5,168.5 Z"/></g>
<g><path style="opacity:0.996" fill="#d87e7d" d="M 162.5,168.5 C 162.5,168.833 162.5,169.167 162.5,169.5C 161.022,169.762 159.689,169.429 158.5,168.5C 159.958,167.218 161.292,167.218 162.5,168.5 Z"/></g>
<g><path style="opacity:0.996" fill="#e9b2b1" d="M 140.5,167.5 C 142.337,167.639 142.67,168.306 141.5,169.5C 140.702,169.043 140.369,168.376 140.5,167.5 Z"/></g>
<g><path style="opacity:0.996" fill="#fbf1f0" d="M 185.5,169.5 C 188.022,169.128 190.022,169.961 191.5,172C 188.521,172.007 185.521,171.673 182.5,171C 183.737,170.768 184.737,170.268 185.5,169.5 Z"/></g>
<g><path style="opacity:0.996" fill="#efc7c6" d="M 198.5,169.5 C 200.646,169.696 200.812,170.696 199,172.5C 198.517,171.552 198.351,170.552 198.5,169.5 Z"/></g>
<g><path style="opacity:0.996" fill="#f2cfce" d="M 66.5,172.5 C 68.4646,172.948 68.7979,173.948 67.5,175.5C 66.6143,174.675 66.281,173.675 66.5,172.5 Z"/></g>
<g><path style="opacity:0.9" fill="#f3cfce" d="M 261.5,174.5 C 263.441,176.011 263.941,178.011 263,180.5C 261.989,181.337 260.822,181.67 259.5,181.5C 259.394,178.921 260.061,176.588 261.5,174.5 Z"/></g>
<g><path style="opacity:0.996" fill="#da7a77" d="M 24.5,180.5 C 25.675,180.281 26.675,180.614 27.5,181.5C 26.943,183.235 26.6097,184.902 26.5,186.5C 24.9137,184.827 24.2471,182.827 24.5,180.5 Z"/></g>
<g><path style="opacity:0.996" fill="#e09191" d="M 53.5,179.5 C 54.782,180.708 54.782,182.042 53.5,183.5C 52.7084,182.3 52.7084,180.967 53.5,179.5 Z"/></g>
<g><path style="opacity:0.996" fill="#fcf4f4" d="M 229.5,146.5 C 232.533,160.087 231.2,173.42 225.5,186.5C 228.433,192.714 232.1,198.381 236.5,203.5C 237.617,213.669 238.95,224.002 240.5,234.5C 243.86,235.21 245.693,233.876 246,230.5C 246.671,229.748 247.504,229.414 248.5,229.5C 248.5,229.833 248.5,230.167 248.5,230.5C 247.468,234.098 245.135,236.098 241.5,236.5C 240.811,237.774 239.977,237.774 239,236.5C 237.607,219.079 232.274,203.079 223,188.5C 221.802,191.726 219.969,194.559 217.5,197C 214.214,199.128 210.881,200.962 207.5,202.5C 211.626,216.763 218.126,229.763 227,241.5C 227.688,242.332 227.521,242.998 226.5,243.5C 225.5,242.167 224.5,242.167 223.5,243.5C 222.667,242.5 221.833,241.5 221,240.5C 216.132,231.426 211.299,222.426 206.5,213.5C 202.887,214.523 199.221,215.356 195.5,216C 190.751,219.756 185.751,223.089 180.5,226C 172.373,228.32 164.373,227.986 156.5,225C 151.354,222.175 146.021,219.841 140.5,218C 134.28,216.881 128.114,215.714 122,214.5C 121.219,213.056 121.386,211.723 122.5,210.5C 129.98,213.468 137.646,214.802 145.5,214.5C 149.582,217.538 153.915,220.038 158.5,222C 163.361,223.273 168.195,223.773 173,223.5C 177.955,223.104 182.455,221.604 186.5,219C 189.131,216.667 191.631,214.167 194,211.5C 194.388,212.428 195.055,213.095 196,213.5C 199.455,212.31 202.955,211.31 206.5,210.5C 207.217,207.824 206.384,205.49 204,203.5C 198.169,204.867 192.335,206.034 186.5,207C 180.493,207.424 174.493,207.924 168.5,208.5C 161.81,207.724 155.143,207.224 148.5,207C 156.252,214.914 165.586,217.581 176.5,215C 180.381,214.393 183.714,212.726 186.5,210C 187.5,209.333 188.5,209.333 189.5,210C 187.996,211.491 187.163,213.324 187,215.5C 184.507,214.054 182.673,214.721 181.5,217.5C 180.914,217.291 180.414,216.957 180,216.5C 166.519,221.131 155.185,218.131 146,207.5C 143.695,205.89 141.862,206.223 140.5,208.5C 134.822,206.158 128.822,204.824 122.5,204.5C 121.833,204.167 121.167,203.833 120.5,203.5C 120.586,202.504 120.252,201.671 119.5,201C 117.167,200.667 114.833,200.333 112.5,200C 107.029,196.761 101.696,193.261 96.5,189.5C 95.1887,194.892 93.6887,200.225 92,205.5C 92.4865,199.709 92.9865,193.876 93.5,188C 93.0665,182.356 92.2331,176.856 91,171.5C 93.2557,175.932 94.9224,180.599 96,185.5C 98.12,187.652 100.62,189.152 103.5,190C 110.214,190.855 116.881,192.022 123.5,193.5C 125.189,193.274 126.855,192.941 128.5,192.5C 137.059,196.346 145.725,196.346 154.5,192.5C 159.794,192.282 165.128,192.616 170.5,193.5C 171.097,194.139 171.93,194.472 173,194.5C 174.8,193.622 176.633,192.955 178.5,192.5C 180.35,193.872 181.683,193.372 182.5,191C 187.263,190.378 188.263,190.545 185.5,191.5C 185.5,192.5 185.5,193.5 185.5,194.5C 189.375,194.644 193.208,194.31 197,193.5C 198.865,193.706 200.532,194.372 202,195.5C 205.493,193.4 209.16,192.733 213,193.5C 215.762,192.019 218.429,190.353 221,188.5C 228.647,175.652 231.481,161.652 229.5,146.5 Z"/></g>
<g><path style="opacity:0.996" fill="#f3d7d7" d="M 216.5,186.5 C 219.001,186.511 219.168,187.178 217,188.5C 216.536,187.906 216.369,187.239 216.5,186.5 Z"/></g>
<g><path style="opacity:0.996" fill="#e6a4a3" d="M 179.5,186.5 C 180.675,186.281 181.675,186.614 182.5,187.5C 180.948,188.798 179.948,188.465 179.5,186.5 Z"/></g>
<g><path style="opacity:0.998" fill="#f1cccb" d="M 126.5,187.5 C 128.337,187.639 128.67,188.306 127.5,189.5C 126.702,189.043 126.369,188.376 126.5,187.5 Z"/></g>
<g><path style="opacity:0.996" fill="#f5dbdb" d="M 117.5,186.5 C 119.937,186.886 121.937,188.053 123.5,190C 120.649,190.32 118.649,189.153 117.5,186.5 Z"/></g>
<g><path style="opacity:0.996" fill="#eec2c1" d="M 172.5,185.5 C 174.517,184.126 176.517,184.293 178.5,186C 176.511,187.554 174.511,187.387 172.5,185.5 Z"/></g>
<g><path style="opacity:0.996" fill="#e19896" d="M 112.5,179.5 C 114.983,179.73 115.483,180.397 114,181.5C 112.97,181.164 112.47,180.497 112.5,179.5 Z"/></g>
<g><path style="opacity:0.996" fill="#e39d9b" d="M 106.5,178.5 C 107.675,178.281 108.675,178.614 109.5,179.5C 107.948,180.798 106.948,180.465 106.5,178.5 Z"/></g>
<g><path style="opacity:1" fill="#dc8986" d="M 134.5,177.5 C 136.337,177.639 136.67,178.306 135.5,179.5C 134.702,179.043 134.369,178.376 134.5,177.5 Z"/></g>
<g><path style="opacity:0.996" fill="#e6a19e" d="M 195.5,173.5 C 197.337,173.639 197.67,174.306 196.5,175.5C 195.702,175.043 195.369,174.376 195.5,173.5 Z"/></g>
<g><path style="opacity:0.996" fill="#e19996" d="M 102.5,173.5 C 104.337,173.639 104.67,174.306 103.5,175.5C 102.702,175.043 102.369,174.376 102.5,173.5 Z"/></g>
<g><path style="opacity:0.996" fill="#e6a6a4" d="M 115.5,172.5 C 117.337,172.639 117.67,173.306 116.5,174.5C 115.702,174.043 115.369,173.376 115.5,172.5 Z"/></g>
<g><path style="opacity:0.996" fill="#f1cbca" d="M 110.5,171.5 C 114.701,171.442 115.201,172.442 112,174.5C 110.961,173.756 110.461,172.756 110.5,171.5 Z"/></g>
<g><path style="opacity:1" fill="#f2cdcd" d="M 136.5,187.5 C 138.429,187.231 140.095,187.731 141.5,189C 140.667,189.167 139.833,189.333 139,189.5C 137.624,189.316 136.791,188.649 136.5,187.5 Z"/></g>
<g><path style="opacity:0.996" fill="#e6a6a3" d="M 189.5,187.5 C 191.465,187.948 191.798,188.948 190.5,190.5C 189.614,189.675 189.281,188.675 189.5,187.5 Z"/></g>
<g><path style="opacity:0.996" fill="#f0cccd" d="M 146.5,188.5 C 148.337,188.639 148.67,189.306 147.5,190.5C 146.702,190.043 146.369,189.376 146.5,188.5 Z"/></g>
<g><path style="opacity:0.51" fill="#eec1c1" d="M 261.5,194.5 C 264.167,193.5 264.167,192.5 261.5,191.5C 262.309,189.027 262.642,186.694 262.5,184.5C 265.321,190.964 265.154,197.297 262,203.5C 261.362,202.391 260.862,201.225 260.5,200C 261.535,199.747 262.535,198.914 263.5,197.5C 262.388,196.735 261.721,195.735 261.5,194.5 Z"/></g>
<g><path style="opacity:0.996" fill="#ebb1b0" d="M 141.5,190.5 C 143.355,190.272 144.188,190.939 144,192.5C 141.192,193.86 140.359,193.193 141.5,190.5 Z"/></g>
<g><path style="opacity:0.996" fill="#d06258" d="M 178.5,192.5 C 176.633,192.955 174.8,193.622 173,194.5C 171.93,194.472 171.097,194.139 170.5,193.5C 175.22,193.775 175.554,192.941 171.5,191C 174.139,190.412 176.473,190.912 178.5,192.5 Z"/></g>
<g><path style="opacity:0.612" fill="#efc8c8" d="M 261.5,191.5 C 261.5,192.5 261.5,193.5 261.5,194.5C 259.443,192.957 259.443,191.957 261.5,191.5 Z"/></g>
<g><path style="opacity:0.992" fill="#c84943" d="M 261.5,191.5 C 264.167,192.5 264.167,193.5 261.5,194.5C 261.5,193.5 261.5,192.5 261.5,191.5 Z"/></g>
<g><path style="opacity:0.992" fill="#ecbbba" d="M 52.5,186.5 C 53.4323,191.839 53.4323,197.172 52.5,202.5C 51.4674,197.18 51.4674,191.846 52.5,186.5 Z"/></g>
<g><path style="opacity:0.996" fill="#ebb8b8" d="M 132.5,191.5 C 135.073,191.148 137.406,191.648 139.5,193C 138.333,193.167 137.167,193.333 136,193.5C 134.319,193.392 133.152,192.725 132.5,191.5 Z"/></g>
<g><path style="opacity:0.996" fill="#e08e8b" d="M 48.5,191.5 C 49.5176,194.377 49.3509,197.377 48,200.5C 47.3076,199.975 46.8076,199.308 46.5,198.5C 47.1702,196.137 47.8368,193.804 48.5,191.5 Z"/></g>
<g><path style="opacity:0.989" fill="#d47373" d="M 42.5,204.5 C 42.7947,202.265 42.4614,200.265 41.5,198.5C 41.7828,197.711 42.2828,197.044 43,196.5C 43.8007,199.367 43.6341,202.034 42.5,204.5 Z"/></g>
<g><path style="opacity:0.004" fill="#fefffe" d="M 242.5,200.5 C 243.833,200.5 245.167,200.5 246.5,200.5C 246.5,201.5 246.5,202.5 246.5,203.5C 245.167,203.5 243.833,203.5 242.5,203.5C 242.5,202.5 242.5,201.5 242.5,200.5 Z"/></g>
<g><path style="opacity:0.459" fill="#e8b1b0" d="M 10.5,195.5 C 11.4237,198.447 11.4237,201.447 10.5,204.5C 9.13323,201.732 8.13323,198.732 7.5,195.5C 8.42463,194.438 9.42463,194.438 10.5,195.5 Z"/></g>
<g><path style="opacity:0.992" fill="#d97b79" d="M 24.5,201.5 C 25.5,201.5 26.5,201.5 27.5,201.5C 26.7542,205.31 25.7542,205.31 24.5,201.5 Z"/></g>
<g><path style="opacity:0.996" fill="#da8380" d="M 221.5,201.5 C 222.776,202.386 222.776,203.386 221.5,204.5C 220.438,203.575 220.438,202.575 221.5,201.5 Z"/></g>
<g><path style="opacity:0.996" fill="#e19896" d="M 98.5,202.5 C 101.674,202.952 102.007,203.952 99.5,205.5C 98.6143,204.675 98.281,203.675 98.5,202.5 Z"/></g>
<g><path style="opacity:0.993" fill="#dc8786" d="M 120.5,203.5 C 121.167,203.833 121.833,204.167 122.5,204.5C 122.785,206.288 122.452,207.955 121.5,209.5C 120.534,207.604 120.201,205.604 120.5,203.5 Z"/></g>
<g><path style="opacity:0.988" fill="#ebbdbc" d="M 46.5,203.5 C 47.5862,203.62 48.2528,204.287 48.5,205.5C 48.1667,206.167 47.8333,206.833 47.5,207.5C 46.5713,206.311 46.238,204.978 46.5,203.5 Z"/></g>
<g><path style="opacity:0.988" fill="#db827e" d="M 116.5,206.5 C 118.337,206.639 118.67,207.306 117.5,208.5C 116.702,208.043 116.369,207.376 116.5,206.5 Z"/></g>
<g><path style="opacity:0.996" fill="#f7e1e0" d="M 140.5,208.5 C 142.729,209.055 144.395,210.389 145.5,212.5C 141.566,214.242 139.899,212.909 140.5,208.5 Z"/></g>
<g><path style="opacity:0.984" fill="#e5a4a3" d="M 25.5,206.5 C 28.0195,208.881 28.0195,211.214 25.5,213.5C 25.162,211.345 25.162,209.011 25.5,206.5 Z"/></g>
<g><path style="opacity:0.987" fill="#f7e2e1" d="M 51.5,204.5 C 52.1174,204.611 52.6174,204.944 53,205.5C 53.8236,208.882 53.657,212.216 52.5,215.5C 51.5108,211.893 51.1774,208.226 51.5,204.5 Z"/></g>
<g><path style="opacity:0.98" fill="#fbf1f1" d="M 58.5,210.5 C 60.0927,209.133 61.4261,209.466 62.5,211.5C 62.3333,211.833 62.1667,212.167 62,212.5C 61.1841,211.177 60.0174,210.511 58.5,210.5 Z"/></g>
<g><path style="opacity:0.996" fill="#efc5c4" d="M 164.5,211.5 C 165.675,211.281 166.675,211.614 167.5,212.5C 165.948,213.798 164.948,213.465 164.5,211.5 Z"/></g>
<g><path style="opacity:0.996" fill="#eab8b7" d="M 106.5,211.5 C 107.788,213.035 107.788,214.701 106.5,216.5C 105.948,214.997 105.948,213.331 106.5,211.5 Z"/></g>
<g><path style="opacity:0.992" fill="#dc8a89" d="M 17.5,222.5 C 16.7784,222.082 16.2784,221.416 16,220.5C 15.6012,220.728 15.4346,221.062 15.5,221.5C 14.2121,219.965 14.2121,218.299 15.5,216.5C 15.6137,218.419 16.2804,220.419 17.5,222.5 Z"/></g>
<g><path style="opacity:0.992" fill="#e19594" d="M 46.5,215.5 C 48.4646,215.948 48.7979,216.948 47.5,218.5C 46.6143,217.675 46.281,216.675 46.5,215.5 Z"/></g>
<g><path style="opacity:0.994" fill="#f8e3e3" d="M 61.5,216.5 C 63.2252,216.843 63.7252,217.843 63,219.5C 61.9614,218.756 61.4614,217.756 61.5,216.5 Z"/></g>
<g><path style="opacity:0.996" fill="#efbebc" d="M 115.5,212.5 C 119.176,213.232 120.176,215.232 118.5,218.5C 117.473,216.447 116.473,214.447 115.5,212.5 Z"/></g>
<g><path style="opacity:0.991" fill="#edbfbe" d="M 51.5,217.5 C 53.2343,219.322 54.2343,221.655 54.5,224.5C 53.3717,225.262 52.2051,225.929 51,226.5C 50.6886,225.258 51.1886,224.258 52.5,223.5C 51.6518,221.591 51.3184,219.591 51.5,217.5 Z"/></g>
<g><path style="opacity:0.965" fill="#f7e4e4" d="M 230.5,217.5 C 232.337,217.639 232.67,218.306 231.5,219.5C 230.702,219.043 230.369,218.376 230.5,217.5 Z"/></g>
<g><path style="opacity:0.996" fill="#efc7c6" d="M 56.5,218.5 C 58.337,218.639 58.6704,219.306 57.5,220.5C 56.7025,220.043 56.3691,219.376 56.5,218.5 Z"/></g>
<g><path style="opacity:0.996" fill="#f0cac9" d="M 105.5,218.5 C 109.243,218.459 109.41,219.126 106,220.5C 105.536,219.906 105.369,219.239 105.5,218.5 Z"/></g>
<g><path style="opacity:0.996" fill="#f2d1d0" d="M 122.5,217.5 C 123.649,217.791 124.316,218.624 124.5,220C 125.279,223.21 125.779,226.377 126,229.5C 124.523,225.636 123.357,221.636 122.5,217.5 Z"/></g>
<g><path style="opacity:0.061" fill="#f8e4e3" d="M 268.5,183.5 C 268.833,183.5 269.167,183.5 269.5,183.5C 269.898,193.085 269.898,202.585 269.5,212C 270.2,214.472 271.2,216.805 272.5,219C 272.182,221.375 270.849,222.542 268.5,222.5C 267.617,225.384 267.617,228.217 268.5,231C 268.141,233.546 267.141,235.713 265.5,237.5C 265.321,235.046 265.987,232.879 267.5,231C 267.43,230.235 267.097,229.735 266.5,229.5C 266.262,226.857 266.262,224.191 266.5,221.5C 271.833,220.167 271.833,218.833 266.5,217.5C 267.178,214.239 268.178,210.906 269.5,207.5C 267.383,199.438 267.05,191.438 268.5,183.5 Z"/></g>
<g><path style="opacity:0.996" fill="#e19797" d="M 25.5,218.5 C 27.5638,218.762 28.8971,219.929 29.5,222C 26.5975,223.601 25.2642,222.434 25.5,218.5 Z"/></g>
<g><path style="opacity:0.996" fill="#efc3c1" d="M 118.5,219.5 C 119.586,219.62 120.253,220.287 120.5,221.5C 119.965,223.916 118.965,224.083 117.5,222C 118.252,221.329 118.586,220.496 118.5,219.5 Z"/></g>
<g><path style="opacity:0.996" fill="#e7b0af" d="M 87.5,217.5 C 88.6291,219.628 88.7958,221.961 88,224.5C 86.4824,222.187 86.3157,219.854 87.5,217.5 Z"/></g>
<g><path style="opacity:0.996" fill="#e8b1b0" d="M 201.5,223.5 C 203.983,223.73 204.483,224.397 203,225.5C 201.97,225.164 201.47,224.497 201.5,223.5 Z"/></g>
<g><path style="opacity:0.996" fill="#de8f8e" d="M 228.5,222.5 C 229.782,223.708 229.782,225.042 228.5,226.5C 227.708,225.3 227.708,223.967 228.5,222.5 Z"/></g>
<g><path style="opacity:0.325" fill="#e6a7a6" d="M 255.5,221.5 C 255.052,224.682 253.718,227.349 251.5,229.5C 251.149,227.131 250.982,224.797 251,222.5C 252.356,221.62 253.856,221.286 255.5,221.5 Z"/></g>
<g><path style="opacity:0.996" fill="#e09492" d="M 70.5,224.5 C 72.337,224.639 72.6704,225.306 71.5,226.5C 70.7025,226.043 70.3691,225.376 70.5,224.5 Z"/></g>
<g><path style="opacity:0.996" fill="#eec1c0" d="M 27.5,225.5 C 29.9732,225.947 30.1399,226.947 28,228.5C 26.2716,227.648 26.105,226.648 27.5,225.5 Z"/></g>
<g><path style="opacity:0.996" fill="#dd8986" d="M 99.5,224.5 C 101.465,224.948 101.798,225.948 100.5,227.5C 99.6143,226.675 99.281,225.675 99.5,224.5 Z"/></g>
<g><path style="opacity:0.996" fill="#f4d9d9" d="M 118.5,225.5 C 121.382,228.388 121.048,228.888 117.5,227C 118.056,226.617 118.389,226.117 118.5,225.5 Z"/></g>
<g><path style="opacity:0.989" fill="#f7dfdf" d="M 17.5,222.5 C 18.9353,225.711 20.1019,229.045 21,232.5C 24.2224,235.922 26.7224,239.922 28.5,244.5C 30.1932,245.228 31.6932,246.228 33,247.5C 33.6877,248.332 33.521,248.998 32.5,249.5C 25.9011,246.85 21.4011,242.183 19,235.5C 17.5148,230.892 16.3481,226.226 15.5,221.5C 15.4346,221.062 15.6012,220.728 16,220.5C 16.2784,221.416 16.7784,222.082 17.5,222.5 Z"/></g>
<g><path style="opacity:0.996" fill="#e29997" d="M 53.5,228.5 C 54.3864,227.224 55.3864,227.224 56.5,228.5C 55.5754,229.562 54.5754,229.562 53.5,228.5 Z"/></g>
<g><path style="opacity:0.996" fill="#f3d4d3" d="M 58.5,230.5 C 59.0768,229.227 59.7435,229.227 60.5,230.5C 60.0302,231.463 59.3635,231.463 58.5,230.5 Z"/></g>
<g><path style="opacity:0.996" fill="#e49f9f" d="M 74.5,228.5 C 76.337,228.639 76.6704,229.306 75.5,230.5C 74.7025,230.043 74.3691,229.376 74.5,228.5 Z"/></g>
<g><path style="opacity:0.996" fill="#cc5750" d="M 12.5,228.5 C 12.8746,229.793 13.2079,231.126 13.5,232.5C 12.8826,232.611 12.3826,232.944 12,233.5C 10.1256,231.431 9.12557,229.098 9,226.5C 10,227.5 11,228.5 12,229.5C 12.3988,229.272 12.5654,228.938 12.5,228.5 Z"/></g>
<g><path style="opacity:0.992" fill="#f0cdcc" d="M 31.5,228.5 C 31.1282,230.562 30.7948,232.229 30.5,233.5C 27.7466,231.412 28.08,229.745 31.5,228.5 Z"/></g>
<g><path style="opacity:0.996" fill="#f2cecd" d="M 106.5,222.5 C 107.496,222.414 108.329,222.748 109,223.5C 109.167,225 109.333,226.5 109.5,228C 108.885,230.766 108.885,233.433 109.5,236C 109.323,238.132 108.323,239.132 106.5,239C 107.469,234.263 107.803,229.43 107.5,224.5C 104.075,224.633 103.742,223.967 106.5,222.5 Z"/></g>
<g><path style="opacity:0.996" fill="#e19794" d="M 226.5,229.5 C 227.239,229.369 227.906,229.536 228.5,230C 226.215,235.88 225.549,235.714 226.5,229.5 Z"/></g>
<g><path style="opacity:0.996" fill="#cf5f5d" d="M 31.5,228.5 C 32.2066,230.231 33.2066,231.897 34.5,233.5C 33.2883,233.93 31.955,233.93 30.5,233.5C 30.7948,232.229 31.1282,230.562 31.5,228.5 Z"/></g>
<g><path style="opacity:0.996" fill="#ecb9b8" d="M 50.5,230.5 C 51.1894,229.226 52.0228,229.226 53,230.5C 53.3108,232.556 53.8108,234.556 54.5,236.5C 54.1667,236.833 53.8333,237.167 53.5,237.5C 52.6411,235 51.6411,232.667 50.5,230.5 Z"/></g>
<g><path style="opacity:0.996" fill="#de8d8a" d="M 95.5,231.5 C 97.337,231.639 97.6704,232.306 96.5,233.5C 95.7025,233.043 95.3691,232.376 95.5,231.5 Z"/></g>
<g><path style="opacity:0.996" fill="#f2cfcf" d="M 55.5,234.5 C 57.2252,234.843 57.7252,235.843 57,237.5C 55.9614,236.756 55.4614,235.756 55.5,234.5 Z"/></g>
<g><path style="opacity:0.984" fill="#d77672" d="M 248.5,230.5 C 248.833,231.833 249.167,233.167 249.5,234.5C 248.385,237.519 246.385,239.352 243.5,240C 246.543,237.054 245.876,235.888 241.5,236.5C 245.135,236.098 247.468,234.098 248.5,230.5 Z"/></g>
<g><path style="opacity:0.6" fill="#e5a3a1" d="M 266.5,229.5 C 267.097,229.735 267.43,230.235 267.5,231C 265.987,232.879 265.321,235.046 265.5,237.5C 264.391,237.557 263.391,237.89 262.5,238.5C 262.196,237.85 261.863,237.183 261.5,236.5C 262.953,233.894 264.619,231.561 266.5,229.5 Z"/></g>
<g><path style="opacity:0.996" fill="#f6dfdf" d="M 99.5,236.5 C 101.337,236.639 101.67,237.306 100.5,238.5C 99.7025,238.043 99.3691,237.376 99.5,236.5 Z"/></g>
<g><path style="opacity:0.063" fill="#f9e9e9" d="M 11.5,71.5 C 11.5,72.5 11.5,73.5 11.5,74.5C 13.2012,74.9662 14.7012,74.9662 16,74.5C 16.1909,76.7078 16.6909,78.7078 17.5,80.5C 17.5646,83.9705 17.2313,86.9705 16.5,89.5C 14.6693,88.9478 13.0026,88.9478 11.5,89.5C 12.2694,91.7369 13.4361,93.7369 15,95.5C 15.3826,94.944 15.8826,94.6107 16.5,94.5C 17.2674,95.172 17.9341,96.0053 18.5,97C 17.6669,99.0811 17.6669,101.248 18.5,103.5C 16.5842,101.884 15.0842,102.218 14,104.5C 13.6667,103.833 13.3333,103.167 13,102.5C 12.3333,104.167 12.3333,105.833 13,107.5C 14.2289,105.053 15.7289,104.887 17.5,107C 15.773,108.743 15.1064,110.576 15.5,112.5C 15.8555,113.522 16.5222,114.189 17.5,114.5C 17.5,114.833 17.5,115.167 17.5,115.5C 16.4168,115.461 15.4168,115.127 14.5,114.5C 14.1667,115.333 13.8333,116.167 13.5,117C 14.0767,119.137 14.41,121.304 14.5,123.5C 13.8423,122.602 13.1757,121.602 12.5,120.5C 12.1667,120.833 11.8333,121.167 11.5,121.5C 12.7758,123.861 12.4425,126.028 10.5,128C 12.1166,129.092 13.1166,130.592 13.5,132.5C 12.2804,134.282 11.6138,136.282 11.5,138.5C 11.6646,140.827 12.3313,142.993 13.5,145C 12.0065,148.775 11.6732,152.608 12.5,156.5C 10.57,159.292 10.57,162.292 12.5,165.5C 10.6091,166.311 9.27578,167.644 8.5,169.5C 8.84569,170.696 9.34569,170.696 10,169.5C 10.1667,170.333 10.3333,171.167 10.5,172C 9.02328,176.308 9.35661,180.475 11.5,184.5C 8.85596,185.741 8.02263,187.741 9,190.5C 9.24917,189.376 9.74917,188.376 10.5,187.5C 11.7294,190.199 11.7294,192.865 10.5,195.5C 9.42463,194.438 8.42463,194.438 7.5,195.5C 8.13323,198.732 9.13323,201.732 10.5,204.5C 11.0967,204.735 11.4301,205.235 11.5,206C 8.97672,207.911 8.97672,209.745 11.5,211.5C 9.07764,213.286 9.07764,214.952 11.5,216.5C 11.5238,218.245 11.1905,220.079 10.5,222C 12.0028,223.921 12.6695,226.088 12.5,228.5C 12.5654,228.938 12.3988,229.272 12,229.5C 11,228.5 10,227.5 9,226.5C 9.12557,229.098 10.1256,231.431 12,233.5C 12.3826,232.944 12.8826,232.611 13.5,232.5C 20.6126,247.765 32.446,257.432 49,261.5C 61.3266,261.814 73.4933,261.48 85.5,260.5C 89.4571,261.189 93.2904,261.189 97,260.5C 99.8671,262.115 102.7,262.448 105.5,261.5C 106.833,261.5 108.167,261.5 109.5,261.5C 110.833,262.833 112.167,262.833 113.5,261.5C 114.167,261.5 114.833,261.5 115.5,261.5C 116.833,262.833 118.167,262.833 119.5,261.5C 126.508,261.666 133.508,261.5 140.5,261C 142.061,260.682 143.228,259.849 144,258.5C 144.745,259.99 145.912,260.99 147.5,261.5C 153.564,260.474 159.564,260.807 165.5,262.5C 166.5,262 167.5,261.5 168.5,261C 178.528,260.216 188.528,260.382 198.5,261.5C 202.859,260.898 207.192,260.232 211.5,259.5C 212.696,259.846 212.696,260.346 211.5,261C 212.784,261.684 213.951,261.517 215,260.5C 215.308,261.308 215.808,261.975 216.5,262.5C 216.554,261.313 216.887,259.98 217.5,258.5C 220.383,258.872 223.383,258.872 226.5,258.5C 226.5,259.5 226.5,260.5 226.5,261.5C 228.924,261.808 231.257,261.474 233.5,260.5C 234.612,259.735 235.279,258.735 235.5,257.5C 236.167,257.5 236.833,257.5 237.5,257.5C 236.114,259.76 236.781,260.594 239.5,260C 240.67,258.245 242.337,257.245 244.5,257C 245.252,256.329 245.586,255.496 245.5,254.5C 251.399,249.389 257.066,244.056 262.5,238.5C 263.391,237.89 264.391,237.557 265.5,237.5C 264.552,240.424 263.218,243.591 261.5,247C 259.5,247.333 257.5,247.667 255.5,248C 252.081,251.35 248.748,254.684 245.5,258C 238.414,262.314 230.747,263.48 222.5,261.5C 220.323,262.246 218.323,263.246 216.5,264.5C 206.952,264.177 197.119,263.51 187,262.5C 186.692,263.308 186.192,263.975 185.5,264.5C 181.579,262.426 177.579,262.426 173.5,264.5C 168.64,264.301 163.64,264.134 158.5,264C 157.4,262.977 156.067,262.477 154.5,262.5C 123.177,263.053 92.1775,263.386 61.5,263.5C 54.6392,262.425 47.6392,261.592 40.5,261C 36.646,258.469 32.8127,255.969 29,253.5C 27.5421,254.747 26.0421,254.747 24.5,253.5C 21.8374,248.856 19.004,243.856 16,238.5C 14.5904,236.116 12.5904,234.45 10,233.5C 8.88769,231.61 8.05435,229.61 7.5,227.5C 8.63609,225.682 9.30276,223.682 9.5,221.5C 9.32338,218.412 9.32338,215.245 9.5,212C 6.22641,209.396 5.89308,206.563 8.5,203.5C 7.4486,200.243 6.78193,196.91 6.5,193.5C 7.67504,193.719 8.67504,193.386 9.5,192.5C 8.18446,191.193 7.18446,189.693 6.5,188C 8.74352,181.987 9.07685,175.82 7.5,169.5C 8.16667,167.5 8.83333,165.5 9.5,163.5C 8.79292,160.284 8.45959,157.118 8.5,154C 9.98097,151.772 10.6476,149.272 10.5,146.5C 10.6853,139.729 10.352,132.896 9.5,126C 9.7722,121.347 10.7722,116.847 12.5,112.5C 10.4279,109.163 10.0946,105.663 11.5,102C 12.7932,101.51 14.1266,101.343 15.5,101.5C 15.049,97.9312 13.549,94.9312 11,92.5C 9.34544,87.0722 10.8454,82.9055 15.5,80C 14.0079,77.6776 12.3412,75.511 10.5,73.5C 10.5427,72.5836 10.8761,71.9169 11.5,71.5 Z"/></g>
<g><path style="opacity:0.937" fill="#d57473" d="M 235.5,257.5 C 235.279,258.735 234.612,259.735 233.5,260.5C 231.257,261.474 228.924,261.808 226.5,261.5C 226.5,260.5 226.5,259.5 226.5,258.5C 227.261,259.391 228.261,260.058 229.5,260.5C 231.511,259.481 233.511,258.481 235.5,257.5 Z"/></g>
<g><path style="opacity:0.992" fill="#ca4e44" d="M 105.5,261.5 C 102.7,262.448 99.8671,262.115 97,260.5C 93.2904,261.189 89.4571,261.189 85.5,260.5C 87.2978,258.9 89.2978,258.566 91.5,259.5C 92.731,258.349 92.731,257.183 91.5,256C 94.7389,256.129 97.9055,255.962 101,255.5C 101.833,255.667 102.667,255.833 103.5,256C 102.542,257.147 102.875,258.147 104.5,259C 101.668,260.908 102.001,261.741 105.5,261.5 Z"/></g>
<g><path style="opacity:0.996" fill="#dd8c8b" d="M 119.5,261.5 C 118.167,262.833 116.833,262.833 115.5,261.5C 116.684,260.312 116.684,259.145 115.5,258C 116.333,257.833 117.167,257.667 118,257.5C 121.104,257.851 120.937,258.351 117.5,259C 118.381,259.708 119.047,260.542 119.5,261.5 Z"/></g>
<g><path style="opacity:0.996" fill="#d97d7a" d="M 113.5,261.5 C 112.167,262.833 110.833,262.833 109.5,261.5C 108.438,260.425 108.438,259.425 109.5,258.5C 110.72,259.711 111.887,259.711 113,258.5C 113.483,259.448 113.649,260.448 113.5,261.5 Z"/></g>
<g><path style="opacity:0.906" fill="#d67571" d="M 245.5,254.5 C 245.586,255.496 245.252,256.329 244.5,257C 242.337,257.245 240.67,258.245 239.5,260C 236.781,260.594 236.114,259.76 237.5,257.5C 240.081,256.512 242.748,255.512 245.5,254.5 Z"/></g>
<g><path style="opacity:0.984" fill="#e29e9e" d="M 110.5,255.5 C 115.696,255.565 115.696,256.232 110.5,257.5C 109.537,257.03 109.537,256.363 110.5,255.5 Z"/></g>
<g><path style="opacity:0.996" fill="#c94d45" d="M 55.5,253.5 C 57.8234,254.058 60.1568,254.725 62.5,255.5C 58.6659,255.833 54.9992,255.833 51.5,255.5C 52.9952,255.011 54.3285,254.345 55.5,253.5 Z"/></g>
<g><path style="opacity:0.991" fill="#f8e9e9" d="M 45.5,252.5 C 48.8067,253.051 52.1401,253.384 55.5,253.5C 54.3285,254.345 52.9952,255.011 51.5,255.5C 49.5648,254.85 47.5648,254.517 45.5,254.5C 45.5,253.833 45.5,253.167 45.5,252.5 Z"/></g>
<g><path style="opacity:0.992" fill="#df9392" d="M 45.5,252.5 C 45.5,253.167 45.5,253.833 45.5,254.5C 44.213,253.232 43.213,253.565 42.5,255.5C 40.4062,253.404 38.0729,251.571 35.5,250C 38.8984,251.238 42.2317,252.072 45.5,252.5 Z"/></g>
<g><path style="opacity:0.988" fill="#eebfbf" d="M 216.5,250.5 C 218.179,250.892 219.846,251.392 221.5,252C 220.069,252.465 218.903,253.299 218,254.5C 216.902,253.033 215.402,252.199 213.5,252C 214.737,251.768 215.737,251.268 216.5,250.5 Z"/></g>
<g><path style="opacity:0.864" fill="#dd8e8d" d="M 223.5,250.5 C 225.308,250.491 226.975,250.991 228.5,252C 227.667,252.167 226.833,252.333 226,252.5C 224.624,252.316 223.791,251.649 223.5,250.5 Z"/></g>
<g><path style="opacity:0.984" fill="#de908f" d="M 180.5,247.5 C 181.675,247.281 182.675,247.614 183.5,248.5C 181.948,249.798 180.948,249.465 180.5,247.5 Z"/></g>
<g><path style="opacity:0.996" fill="#da8382" d="M 162.5,247.5 C 166.182,247.335 169.848,247.501 173.5,248C 169.483,248.671 165.483,249.004 161.5,249C 162.056,248.617 162.389,248.117 162.5,247.5 Z"/></g>
<g><path style="opacity:0.996" fill="#d06462" d="M 200.5,247.5 C 203.85,247.335 207.183,247.502 210.5,248C 210,248.5 209.5,249 209,249.5C 206.717,248.281 204.384,248.281 202,249.5C 200.97,249.164 200.47,248.497 200.5,247.5 Z"/></g>
<g><path style="opacity:0.992" fill="#e3a1a0" d="M 192.5,247.5 C 194.857,247.337 197.19,247.503 199.5,248C 196.816,250.145 194.483,249.978 192.5,247.5 Z"/></g>
<g><path style="opacity:0.992" fill="#dd8a88" d="M 247.5,241.5 C 248.552,241.351 249.552,241.517 250.5,242C 248.975,243.009 247.308,243.509 245.5,243.5C 245.5,244.5 245.5,245.5 245.5,246.5C 244.127,246.657 242.793,246.49 241.5,246C 243.141,243.837 245.141,242.337 247.5,241.5 Z"/></g>
<g><path style="opacity:0.996" fill="#d97a77" d="M 43.5,241.5 C 47.4067,241.667 51.4067,242.334 55.5,243.5C 55.3001,248.354 53.8001,248.687 51,244.5C 49.6841,247.028 48.5174,247.028 47.5,244.5C 44.5717,245.921 43.2384,244.921 43.5,241.5 Z"/></g>
<g><path style="opacity:0.973" fill="#c0302f" d="M 260.5,242.5 C 261.713,243.497 261.546,244.497 260,245.5C 259.53,244.423 259.697,243.423 260.5,242.5 Z"/></g>
<g><path style="opacity:0.992" fill="#faeeee" d="M 35.5,238.5 C 38.755,239.028 40.0883,240.695 39.5,243.5C 37.5486,242.226 36.2152,240.56 35.5,238.5 Z"/></g>
<g><path style="opacity:0.996" fill="#c74b48" d="M 15.5,83.5 C 16.4646,84.7211 16.298,86.0544 15,87.5C 11.8613,85.894 12.0279,84.5607 15.5,83.5 Z"/></g>
<g><path style="opacity:0.004" fill="#fefffe" d="M 155.5,263.5 C 156.289,263.783 156.956,264.283 157.5,265C 156.184,265.528 155.517,265.028 155.5,263.5 Z"/></g>
</svg>
